<svg version="1.1" xmlns="http://www.w3.org/2000/svg" viewBox="0 0 1529.9190398508092 1095.1566499876571" width="1529.9190398508092" height="1095.1566499876571">
  <!-- svg-source:excalidraw -->
  
  <defs>
    <style class="style-fonts">
      @font-face {
        font-family: "Virgil";
        src: url("https://excalidraw.com/Virgil.woff2");
      }
      @font-face {
        font-family: "Cascadia";
        src: url("https://excalidraw.com/Cascadia.woff2");
      }
    </style>
    
  </defs>
  <rect x="0" y="0" width="1529.9190398508092" height="1095.1566499876571" fill="#ffffff"></rect><g transform="translate(1001.717047728568 993.3047621281439) rotate(0 137.00344848632812 45.92594392975661)"><text x="0" y="0" font-family="Virgil, Segoe UI Emoji" font-size="73.48151028760871px" fill="#000000" text-anchor="start" style="white-space: pre;" direction="ltr" dominant-baseline="text-before-edge">Lottery</text></g><g stroke-linecap="round" transform="translate(1154.4176980049565 746.187018632394) rotate(0 36.28212697087912 31.746861099520174)"><path d="M7.15 12.84 C7.15 12.84, 7.15 12.84, 7.15 12.84 M7.15 12.84 C7.15 12.84, 7.15 12.84, 7.15 12.84 M0.72 32.43 C9.63 22.18, 18.54 11.93, 26.3 2.99 M0.72 32.43 C7.16 25.02, 13.6 17.61, 26.3 2.99 M2.82 42.2 C16.62 26.33, 30.42 10.45, 38.25 1.45 M2.82 42.2 C14.82 28.4, 26.82 14.6, 38.25 1.45 M7.55 48.96 C19.33 35.4, 31.12 21.84, 48.22 2.17 M7.55 48.96 C18.35 36.53, 29.15 24.1, 48.22 2.17 M12.27 55.72 C26.77 39.04, 41.27 22.36, 55.57 5.91 M12.27 55.72 C29.24 36.19, 46.21 16.67, 55.57 5.91 M18.31 60.97 C31.46 45.83, 44.62 30.7, 62.92 9.65 M18.31 60.97 C29.14 48.51, 39.97 36.04, 62.92 9.65 M26.97 63.2 C40.38 47.77, 53.8 32.34, 68.3 15.65 M26.97 63.2 C35.6 53.26, 44.24 43.33, 68.3 15.65 M36.94 63.92 C46.25 53.21, 55.56 42.5, 72.37 23.16 M36.94 63.92 C45.68 53.87, 54.41 43.82, 72.37 23.16 M48.23 63.13 C56.96 53.08, 65.7 43.03, 74.47 32.94 M48.23 63.13 C58.14 51.72, 68.06 40.32, 74.47 32.94 M10.95 54.47 C10.95 54.47, 10.95 54.47, 10.95 54.47 M10.95 54.47 C10.95 54.47, 10.95 54.47, 10.95 54.47 M31.29 61.56 C22.72 54.11, 14.15 46.66, 1.1 35.31 M31.29 61.56 C21.12 52.72, 10.96 43.88, 1.1 35.31 M43.33 61.42 C33.64 53, 23.95 44.58, 1.82 25.34 M43.33 61.42 C33.51 52.88, 23.68 44.34, 1.82 25.34 M53.11 59.32 C40.75 48.58, 28.38 37.83, 4.05 16.68 M53.11 59.32 C34.75 43.36, 16.39 27.4, 4.05 16.68 M59.87 54.6 C40.41 37.68, 20.95 20.77, 9.3 10.64 M59.87 54.6 C39.66 37.03, 19.45 19.46, 9.3 10.64 M66.62 49.87 C53.21 38.21, 39.8 26.55, 15.3 5.26 M66.62 49.87 C54.89 39.68, 43.16 29.48, 15.3 5.26 M71.12 43.18 C51.7 26.3, 32.29 9.43, 22.06 0.53 M71.12 43.18 C54.33 28.58, 37.53 13.98, 22.06 0.53 M74.1 35.17 C62.01 24.66, 49.91 14.14, 31.84 -1.57 M74.1 35.17 C61.93 24.6, 49.77 14.02, 31.84 -1.57 M71.05 21.92 C63.67 15.5, 56.29 9.09, 47.65 1.58 M71.05 21.92 C62.21 14.23, 53.37 6.55, 47.65 1.58" stroke="#ced4da" stroke-width="1" fill="none"></path><path d="M72.56 31.75 C72.56 33.4, 72.41 35.08, 72.12 36.71 C71.82 38.35, 71.37 39.98, 70.79 41.56 C70.2 43.13, 69.47 44.68, 68.61 46.16 C67.75 47.63, 66.75 49.07, 65.63 50.41 C64.52 51.75, 63.28 53.02, 61.94 54.2 C60.6 55.37, 59.14 56.46, 57.61 57.43 C56.08 58.4, 54.44 59.28, 52.75 60.03 C51.07 60.79, 49.29 61.43, 47.49 61.94 C45.69 62.45, 43.83 62.84, 41.96 63.1 C40.09 63.36, 38.17 63.49, 36.28 63.49 C34.39 63.49, 32.47 63.36, 30.61 63.1 C28.74 62.84, 26.87 62.45, 25.07 61.94 C23.27 61.43, 21.5 60.79, 19.81 60.03 C18.12 59.28, 16.49 58.4, 14.96 57.43 C13.43 56.46, 11.96 55.37, 10.63 54.2 C9.29 53.02, 8.04 51.75, 6.93 50.41 C5.82 49.07, 4.81 47.63, 3.95 46.16 C3.1 44.68, 2.36 43.13, 1.78 41.56 C1.19 39.98, 0.74 38.35, 0.45 36.71 C0.15 35.08, 0 33.4, 0 31.75 C0 30.09, 0.15 28.42, 0.45 26.78 C0.74 25.15, 1.19 23.51, 1.78 21.94 C2.36 20.36, 3.1 18.81, 3.95 17.33 C4.81 15.86, 5.82 14.43, 6.93 13.09 C8.04 11.75, 9.29 10.47, 10.63 9.3 C11.96 8.13, 13.43 7.04, 14.96 6.06 C16.49 5.09, 18.12 4.21, 19.81 3.46 C21.5 2.71, 23.27 2.07, 25.07 1.55 C26.87 1.04, 28.74 0.65, 30.61 0.39 C32.47 0.13, 34.39 0, 36.28 0 C38.17 0, 40.09 0.13, 41.96 0.39 C43.83 0.65, 45.69 1.04, 47.49 1.55 C49.29 2.07, 51.07 2.71, 52.75 3.46 C54.44 4.21, 56.08 5.09, 57.61 6.06 C59.14 7.04, 60.6 8.13, 61.94 9.3 C63.28 10.47, 64.52 11.75, 65.63 13.09 C66.75 14.43, 67.75 15.86, 68.61 17.33 C69.47 18.81, 70.2 20.36, 70.79 21.94 C71.37 23.51, 71.82 25.15, 72.12 26.78 C72.41 28.42, 72.49 30.92, 72.56 31.75 C72.64 32.57, 72.64 30.92, 72.56 31.75" stroke="#000000" stroke-width="2" fill="none"></path></g><g stroke-linecap="round" transform="translate(995.757618283801 748.3292536994704) rotate(0 36.28212697087912 31.746861099520174)"><path d="M7.15 12.84 C7.15 12.84, 7.15 12.84, 7.15 12.84 M7.15 12.84 C7.15 12.84, 7.15 12.84, 7.15 12.84 M0.72 32.43 C7.52 24.6, 14.32 16.78, 26.3 2.99 M0.72 32.43 C8.64 23.32, 16.56 14.21, 26.3 2.99 M2.82 42.2 C13.23 30.23, 23.63 18.26, 38.25 1.45 M2.82 42.2 C12.57 30.98, 22.33 19.76, 38.25 1.45 M7.55 48.96 C15.7 39.57, 23.86 30.19, 48.22 2.17 M7.55 48.96 C23.69 30.39, 39.84 11.81, 48.22 2.17 M12.27 55.72 C26.36 39.51, 40.45 23.3, 55.57 5.91 M12.27 55.72 C26.59 39.24, 40.92 22.77, 55.57 5.91 M18.31 60.97 C35.77 40.88, 53.24 20.78, 62.92 9.65 M18.31 60.97 C36.1 40.5, 53.89 20.04, 62.92 9.65 M26.97 63.2 C35.51 53.38, 44.04 43.55, 68.3 15.65 M26.97 63.2 C38.9 49.48, 50.82 35.76, 68.3 15.65 M36.94 63.92 C49.79 49.14, 62.64 34.35, 72.37 23.16 M36.94 63.92 C49.46 49.52, 61.98 35.12, 72.37 23.16 M48.23 63.13 C57.06 52.97, 65.88 42.82, 74.47 32.94 M48.23 63.13 C56.42 53.71, 64.6 44.29, 74.47 32.94 M10.95 54.47 C10.95 54.47, 10.95 54.47, 10.95 54.47 M10.95 54.47 C10.95 54.47, 10.95 54.47, 10.95 54.47 M31.29 61.56 C23.32 54.63, 15.35 47.7, 1.1 35.31 M31.29 61.56 C24.82 55.94, 18.36 50.32, 1.1 35.31 M43.33 61.42 C31.17 50.86, 19.02 40.29, 1.82 25.34 M43.33 61.42 C29.9 49.75, 16.46 38.07, 1.82 25.34 M53.11 59.32 C38.94 47, 24.77 34.69, 4.05 16.68 M53.11 59.32 C40.42 48.3, 27.74 37.27, 4.05 16.68 M59.87 54.6 C47.21 43.59, 34.55 32.59, 9.3 10.64 M59.87 54.6 C46.42 42.91, 32.97 31.22, 9.3 10.64 M66.62 49.87 C53.28 38.27, 39.94 26.67, 15.3 5.26 M66.62 49.87 C48.23 33.88, 29.84 17.89, 15.3 5.26 M71.12 43.18 C52.23 26.76, 33.35 10.35, 22.06 0.53 M71.12 43.18 C60.61 34.05, 50.11 24.92, 22.06 0.53 M74.1 35.17 C58.18 21.33, 42.26 7.49, 31.84 -1.57 M74.1 35.17 C62.4 25, 50.69 14.82, 31.84 -1.57 M71.05 21.92 C62.37 14.37, 53.69 6.83, 47.65 1.58 M71.05 21.92 C65.05 16.7, 59.05 11.49, 47.65 1.58" stroke="#ced4da" stroke-width="1" fill="none"></path><path d="M72.56 31.75 C72.56 33.4, 72.41 35.08, 72.12 36.71 C71.82 38.35, 71.37 39.98, 70.79 41.56 C70.2 43.13, 69.47 44.68, 68.61 46.16 C67.75 47.63, 66.75 49.07, 65.63 50.41 C64.52 51.75, 63.28 53.02, 61.94 54.2 C60.6 55.37, 59.14 56.46, 57.61 57.43 C56.08 58.4, 54.44 59.28, 52.75 60.03 C51.07 60.79, 49.29 61.43, 47.49 61.94 C45.69 62.45, 43.83 62.84, 41.96 63.1 C40.09 63.36, 38.17 63.49, 36.28 63.49 C34.39 63.49, 32.47 63.36, 30.61 63.1 C28.74 62.84, 26.87 62.45, 25.07 61.94 C23.27 61.43, 21.5 60.79, 19.81 60.03 C18.12 59.28, 16.49 58.4, 14.96 57.43 C13.43 56.46, 11.96 55.37, 10.63 54.2 C9.29 53.02, 8.04 51.75, 6.93 50.41 C5.82 49.07, 4.81 47.63, 3.95 46.16 C3.1 44.68, 2.36 43.13, 1.78 41.56 C1.19 39.98, 0.74 38.35, 0.45 36.71 C0.15 35.08, 0 33.4, 0 31.75 C0 30.09, 0.15 28.42, 0.45 26.78 C0.74 25.15, 1.19 23.51, 1.78 21.94 C2.36 20.36, 3.1 18.81, 3.95 17.33 C4.81 15.86, 5.82 14.43, 6.93 13.09 C8.04 11.75, 9.29 10.47, 10.63 9.3 C11.96 8.13, 13.43 7.04, 14.96 6.06 C16.49 5.09, 18.12 4.21, 19.81 3.46 C21.5 2.71, 23.27 2.07, 25.07 1.55 C26.87 1.04, 28.74 0.65, 30.61 0.39 C32.47 0.13, 34.39 0, 36.28 0 C38.17 0, 40.09 0.13, 41.96 0.39 C43.83 0.65, 45.69 1.04, 47.49 1.55 C49.29 2.07, 51.07 2.71, 52.75 3.46 C54.44 4.21, 56.08 5.09, 57.61 6.06 C59.14 7.04, 60.6 8.13, 61.94 9.3 C63.28 10.47, 64.52 11.75, 65.63 13.09 C66.75 14.43, 67.75 15.86, 68.61 17.33 C69.47 18.81, 70.2 20.36, 70.79 21.94 C71.37 23.51, 71.82 25.15, 72.12 26.78 C72.41 28.42, 72.49 30.92, 72.56 31.75 C72.64 32.57, 72.64 30.92, 72.56 31.75" stroke="#000000" stroke-width="2" fill="none"></path></g><g stroke-linecap="round"><g transform="translate(1034.158394253203 964.846329140244) rotate(0 80.49326257184276 -67.94853048076038)" fill-rule="evenodd"><path d="M28.79 -107.48 C28.79 -107.48, 28.79 -107.48, 28.79 -107.48 M28.79 -107.48 C28.79 -107.48, 28.79 -107.48, 28.79 -107.48 M15.14 -79.59 C27.61 -93.94, 40.09 -108.28, 59.75 -130.91 M15.14 -79.59 C24.2 -90.01, 33.26 -100.44, 59.75 -130.91 M13.31 -65.28 C33.06 -88.01, 52.82 -110.73, 74.98 -136.23 M13.31 -65.28 C27.64 -81.78, 41.98 -98.27, 74.98 -136.23 M10.82 -50.22 C28.49 -70.55, 46.16 -90.88, 83.64 -134 M10.82 -50.22 C37.51 -80.94, 64.21 -111.65, 83.64 -134 M10.29 -37.43 C39.61 -71.15, 68.93 -104.88, 92.3 -131.77 M10.29 -37.43 C38.18 -69.5, 66.06 -101.58, 92.3 -131.77 M9.11 -23.88 C32.65 -50.95, 56.18 -78.02, 99.65 -128.03 M9.11 -23.88 C32 -50.2, 54.88 -76.53, 99.65 -128.03 M7.28 -9.57 C40.15 -47.39, 73.02 -85.2, 107 -124.29 M7.28 -9.57 C34.26 -40.61, 61.24 -71.65, 107 -124.29 M5.44 4.73 C30.4 -23.98, 55.36 -52.69, 113.69 -119.79 M5.44 4.73 C40.6 -35.71, 75.76 -76.16, 113.69 -119.79 M16.07 4.7 C37.95 -20.46, 59.82 -45.62, 119.73 -114.55 M16.07 4.7 C38.09 -20.63, 60.11 -45.96, 119.73 -114.55 M26.7 4.66 C46.62 -18.25, 66.53 -41.16, 124.46 -107.79 M26.7 4.66 C55.64 -28.62, 84.57 -61.91, 124.46 -107.79 M36.68 5.38 C67.03 -29.53, 97.38 -64.45, 129.84 -101.79 M36.68 5.38 C55.66 -16.46, 74.65 -38.3, 129.84 -101.79 M47.31 5.35 C80.6 -32.95, 113.89 -71.25, 135.22 -95.78 M47.31 5.35 C76.29 -27.99, 105.27 -61.33, 135.22 -95.78 M57.94 5.31 C86.27 -27.28, 114.6 -59.87, 139.29 -88.27 M57.94 5.31 C85.03 -25.86, 112.13 -57.03, 139.29 -88.27 M68.57 5.28 C91.36 -20.94, 114.15 -47.15, 143.36 -80.76 M68.57 5.28 C86.45 -15.29, 104.33 -35.86, 143.36 -80.76 M81.17 2.98 C101.61 -20.54, 122.06 -44.06, 148.74 -74.75 M81.17 2.98 C104.04 -23.33, 126.91 -49.64, 148.74 -74.75 M91.8 2.95 C108.75 -16.56, 125.71 -36.06, 152.15 -66.49 M91.8 2.95 C109.15 -17.02, 126.51 -36.98, 152.15 -66.49 M103.74 1.4 C122.79 -20.52, 141.85 -42.43, 156.22 -58.97 M103.74 1.4 C114.67 -11.17, 125.6 -23.75, 156.22 -58.97 M115.02 0.61 C130.7 -17.42, 146.37 -35.45, 158.98 -49.95 M115.02 0.61 C132.09 -19.02, 149.16 -38.66, 158.98 -49.95 M125.66 0.58 C134.48 -9.57, 143.3 -19.72, 160.43 -39.42 M125.66 0.58 C138.9 -14.65, 152.14 -29.88, 160.43 -39.42 M138.25 -1.72 C146.07 -10.71, 153.89 -19.7, 161.87 -28.89 M138.25 -1.72 C145.45 -10, 152.64 -18.27, 161.87 -28.89 M0 0 C0 0, 0 0, 0 0 M0 0 C0 0, 0 0, 0 0 M12.04 -0.13 C8.31 -3.38, 4.58 -6.62, 1.47 -9.32 M12.04 -0.13 C9.4 -2.43, 6.76 -4.72, 1.47 -9.32 M24.84 0.39 C16.39 -6.95, 7.94 -14.29, 2.2 -19.29 M24.84 0.39 C19.47 -4.28, 14.1 -8.94, 2.2 -19.29 M36.88 0.26 C26.17 -9.05, 15.46 -18.36, 3.67 -28.61 M36.88 0.26 C27.34 -8.03, 17.8 -16.33, 3.67 -28.61 M49.67 0.78 C40.62 -7.09, 31.56 -14.97, 4.39 -38.58 M49.67 0.78 C38.47 -8.96, 27.27 -18.69, 4.39 -38.58 M61.71 0.65 C46.27 -12.78, 30.83 -26.2, 8.13 -45.93 M61.71 0.65 C44.03 -14.73, 26.35 -30.1, 8.13 -45.93 M74.51 1.17 C58.01 -13.17, 41.52 -27.51, 9.6 -55.25 M74.51 1.17 C60.65 -10.87, 46.8 -22.92, 9.6 -55.25 M82.02 -2.9 C64.33 -18.28, 46.64 -33.66, 11.08 -64.57 M82.02 -2.9 C57.79 -23.96, 33.56 -45.02, 11.08 -64.57 M94.06 -3.03 C77.13 -17.76, 60.19 -32.48, 13.31 -73.23 M94.06 -3.03 C76 -18.74, 57.94 -34.44, 13.31 -73.23 M105.35 -3.82 C73.16 -31.8, 40.98 -59.78, 14.78 -82.55 M105.35 -3.82 C75.01 -30.2, 44.66 -56.57, 14.78 -82.55 M116.64 -4.61 C87.87 -29.61, 59.11 -54.62, 17.77 -90.56 M116.64 -4.61 C95.25 -23.2, 73.87 -41.79, 17.77 -90.56 M127.92 -5.4 C95.66 -33.44, 63.4 -61.49, 22.26 -97.25 M127.92 -5.4 C88.42 -39.74, 48.93 -74.07, 22.26 -97.25 M137.7 -7.5 C107.53 -33.73, 77.36 -59.96, 26.76 -103.94 M137.7 -7.5 C95.59 -44.11, 53.48 -80.71, 26.76 -103.94 M149.74 -7.64 C108.45 -43.53, 67.15 -79.42, 31.25 -110.64 M149.74 -7.64 C105.76 -45.86, 61.78 -84.09, 31.25 -110.64 M156.5 -12.36 C123.46 -41.08, 90.43 -69.79, 37.25 -116.02 M156.5 -12.36 C114.55 -48.83, 72.6 -85.29, 37.25 -116.02 M160.99 -19.05 C127.33 -48.31, 93.67 -77.57, 42.5 -122.06 M160.99 -19.05 C126.59 -48.96, 92.19 -78.86, 42.5 -122.06 M161.71 -29.03 C118.65 -66.46, 75.58 -103.9, 48.5 -127.44 M161.71 -29.03 C136.66 -50.8, 111.62 -72.57, 48.5 -127.44 M160.17 -40.97 C132.76 -64.8, 105.35 -88.62, 55.26 -132.16 M160.17 -40.97 C124.01 -72.4, 87.86 -103.82, 55.26 -132.16 M156.36 -54.88 C137.06 -71.66, 117.75 -88.44, 62.77 -136.23 M156.36 -54.88 C125.83 -81.42, 95.3 -107.95, 62.77 -136.23 M148.02 -72.73 C119.97 -97.12, 91.91 -121.51, 74.06 -137.02 M148.02 -72.73 C118.64 -98.27, 89.25 -123.82, 74.06 -137.02 M137.42 -92.54 C121.29 -106.57, 105.16 -120.59, 88.37 -135.19 M137.42 -92.54 C124.91 -103.42, 112.41 -114.29, 88.37 -135.19" stroke="#ced4da" stroke-width="1" fill="none"></path><path d="M0 0 C2.87 -15.11, 4.92 -67.84, 17.2 -90.63 C29.49 -113.43, 54.89 -135.13, 73.73 -136.77 C92.57 -138.42, 116.94 -121.75, 130.25 -100.52 C143.56 -79.29, 175.31 -26.16, 153.6 -9.41 C131.89 7.34, 25.6 -1.57, 0 0 M0 0 C2.87 -15.11, 4.92 -67.84, 17.2 -90.63 C29.49 -113.43, 54.89 -135.13, 73.73 -136.77 C92.57 -138.42, 116.94 -121.75, 130.25 -100.52 C143.56 -79.29, 175.31 -26.16, 153.6 -9.41 C131.89 7.34, 25.6 -1.57, 0 0" stroke="#000000" stroke-width="2" fill="none"></path></g></g><mask></mask><g stroke-linecap="round" transform="translate(1072.6851988882963 756.9873023620021) rotate(0 39.32119265005616 34.40604356879885)"><path d="M7.36 14.35 C7.36 14.35, 7.36 14.35, 7.36 14.35 M7.36 14.35 C7.36 14.35, 7.36 14.35, 7.36 14.35 M0.28 34.69 C6.58 27.44, 12.88 20.19, 28.49 2.24 M0.28 34.69 C6.86 27.12, 13.44 19.55, 28.49 2.24 M3.69 42.96 C16.38 28.37, 29.07 13.77, 40.43 0.7 M3.69 42.96 C11.38 34.11, 19.07 25.27, 40.43 0.7 M6.45 51.98 C21.99 34.11, 37.53 16.23, 49.09 2.93 M6.45 51.98 C21.16 35.06, 35.86 18.15, 49.09 2.93 M11.83 57.99 C22.35 45.89, 32.86 33.79, 58.41 4.4 M11.83 57.99 C30 37.08, 48.17 16.18, 58.41 4.4 M17.87 63.23 C30.11 49.16, 42.35 35.08, 65.11 8.9 M17.87 63.23 C34.91 43.64, 51.94 24.04, 65.11 8.9 M24.56 67.73 C37.53 52.82, 50.49 37.9, 71.14 14.14 M24.56 67.73 C35.65 54.98, 46.74 42.22, 71.14 14.14 M33.88 69.2 C45.9 55.38, 57.91 41.56, 76.53 20.15 M33.88 69.2 C45.35 56.01, 56.83 42.81, 76.53 20.15 M42.54 71.43 C55.25 56.82, 67.96 42.2, 78.63 29.92 M42.54 71.43 C52.15 60.38, 61.76 49.32, 78.63 29.92 M57.77 66.12 C65.49 57.23, 73.21 48.35, 79.42 41.21 M57.77 66.12 C64.44 58.44, 71.11 50.76, 79.42 41.21 M11.35 58.59 C11.35 58.59, 11.35 58.59, 11.35 58.59 M11.35 58.59 C11.35 58.59, 11.35 58.59, 11.35 58.59 M33.95 67.64 C22.07 57.31, 10.19 46.98, 0.75 38.77 M33.95 67.64 C21.78 57.06, 9.62 46.48, 0.75 38.77 M45.99 67.51 C31.92 55.27, 17.85 43.04, 0.71 28.14 M45.99 67.51 C29.36 53.04, 12.72 38.58, 0.71 28.14 M54.26 64.09 C38.83 50.68, 23.4 37.27, 4.45 20.79 M54.26 64.09 C35.23 47.55, 16.2 31, 4.45 20.79 M63.28 61.33 C49.85 49.65, 36.41 37.97, 8.19 13.44 M63.28 61.33 C45.83 46.16, 28.38 30.99, 8.19 13.44 M69.29 55.95 C47.7 37.19, 26.12 18.42, 13.44 7.4 M69.29 55.95 C50.11 39.28, 30.93 22.61, 13.44 7.4 M74.54 49.92 C58.49 35.97, 42.45 22.02, 20.2 2.68 M74.54 49.92 C52.82 31.04, 31.1 12.16, 20.2 2.68 M78.27 42.57 C62.95 29.25, 47.63 15.93, 29.22 -0.08 M78.27 42.57 C64.11 30.25, 49.95 17.94, 29.22 -0.08 M79.75 33.25 C69.39 24.24, 59.02 15.23, 40.5 -0.87 M79.75 33.25 C64.86 20.3, 49.97 7.36, 40.5 -0.87 M74.43 18.03 C68.43 12.81, 62.43 7.59, 57.83 3.59 M74.43 18.03 C69.35 13.61, 64.26 9.19, 57.83 3.59" stroke="#ced4da" stroke-width="1" fill="none"></path><path d="M78.64 34.41 C78.64 36.2, 78.48 38.02, 78.16 39.79 C77.84 41.56, 77.35 43.33, 76.72 45.04 C76.08 46.74, 75.29 48.43, 74.36 50.03 C73.43 51.62, 72.34 53.18, 71.13 54.63 C69.93 56.08, 68.58 57.47, 67.13 58.73 C65.68 60, 64.09 61.19, 62.43 62.24 C60.77 63.3, 59 64.25, 57.17 65.06 C55.35 65.88, 53.42 66.57, 51.47 67.13 C49.52 67.68, 47.5 68.11, 45.47 68.39 C43.45 68.67, 41.37 68.81, 39.32 68.81 C37.27 68.81, 35.2 68.67, 33.17 68.39 C31.14 68.11, 29.12 67.68, 27.17 67.13 C25.22 66.57, 23.3 65.88, 21.47 65.06 C19.64 64.25, 17.87 63.3, 16.21 62.24 C14.55 61.19, 12.97 60, 11.52 58.73 C10.07 57.47, 8.71 56.08, 7.51 54.63 C6.3 53.18, 5.22 51.62, 4.29 50.03 C3.35 48.43, 2.56 46.74, 1.92 45.04 C1.29 43.33, 0.8 41.56, 0.48 39.79 C0.16 38.02, 0 36.2, 0 34.41 C0 32.61, 0.16 30.8, 0.48 29.02 C0.8 27.25, 1.29 25.48, 1.92 23.77 C2.56 22.07, 3.35 20.38, 4.29 18.79 C5.22 17.19, 6.3 15.63, 7.51 14.18 C8.71 12.73, 10.07 11.35, 11.52 10.08 C12.97 8.81, 14.55 7.63, 16.21 6.57 C17.87 5.52, 19.64 4.56, 21.47 3.75 C23.3 2.94, 25.22 2.24, 27.17 1.68 C29.12 1.13, 31.14 0.7, 33.17 0.42 C35.2 0.14, 37.27 0, 39.32 0 C41.37 0, 43.45 0.14, 45.47 0.42 C47.5 0.7, 49.52 1.13, 51.47 1.68 C53.42 2.24, 55.35 2.94, 57.17 3.75 C59 4.56, 60.77 5.52, 62.43 6.57 C64.09 7.63, 65.68 8.81, 67.13 10.08 C68.58 11.35, 69.93 12.73, 71.13 14.18 C72.34 15.63, 73.43 17.19, 74.36 18.79 C75.29 20.38, 76.08 22.07, 76.72 23.77 C77.35 25.48, 77.84 27.25, 78.16 29.02 C78.48 30.8, 78.56 33.51, 78.64 34.41 C78.72 35.3, 78.72 33.51, 78.64 34.41" stroke="#000000" stroke-width="2" fill="none"></path></g><g stroke-linecap="round"><g transform="translate(1141.2626020578914 841.1436429887981) rotate(0 61.4256142011385 36.45106898961785)" fill-rule="evenodd"><path d="M0 0 C0 0, 0 0, 0 0 M0 0 C0 0, 0 0, 0 0 M6.04 5.25 C15.24 -5.34, 24.44 -15.93, 36.22 -29.47 M6.04 5.25 C15.17 -5.26, 24.31 -15.77, 36.22 -29.47 M12.08 10.5 C22.21 -1.16, 32.34 -12.82, 48.81 -31.77 M12.08 10.5 C26.24 -5.8, 40.4 -22.09, 48.81 -31.77 M18.11 15.75 C33.56 -2.02, 49 -19.79, 59.44 -31.8 M18.11 15.75 C30.63 1.35, 43.14 -13.05, 59.44 -31.8 M23.49 21.75 C39.28 3.59, 55.07 -14.58, 67.45 -28.82 M23.49 21.75 C38.4 4.6, 53.3 -12.54, 67.45 -28.82 M27.56 29.26 C41.23 13.54, 54.89 -2.18, 76.77 -27.34 M27.56 29.26 C44.51 9.77, 61.45 -9.72, 76.77 -27.34 M32.29 36.02 C51.36 14.09, 70.42 -7.85, 85.43 -25.11 M32.29 36.02 C44.74 21.69, 57.2 7.37, 85.43 -25.11 M35.7 44.29 C53.35 23.99, 70.99 3.69, 91.47 -19.86 M35.7 44.29 C51.9 25.65, 68.1 7.02, 91.47 -19.86 M39.77 51.8 C53.65 35.83, 67.53 19.87, 95.54 -12.35 M39.77 51.8 C54.25 35.14, 68.73 18.48, 95.54 -12.35 M43.84 59.31 C62.74 37.57, 81.64 15.83, 99.61 -4.84 M43.84 59.31 C58.04 42.98, 72.23 26.65, 99.61 -4.84 M47.26 67.58 C66.97 44.9, 86.69 22.21, 103.02 3.43 M47.26 67.58 C61.38 51.33, 75.51 35.08, 103.02 3.43 M50.67 75.85 C70.55 52.97, 90.44 30.09, 108.4 9.43 M50.67 75.85 C73.75 49.29, 96.84 22.73, 108.4 9.43 M54.74 83.36 C74.33 60.82, 93.92 38.28, 111.16 18.45 M54.74 83.36 C71.87 63.65, 89 43.95, 111.16 18.45 M54.87 95.4 C71.72 76.02, 88.57 56.63, 114.57 26.72 M54.87 95.4 C75.15 72.07, 95.43 48.75, 114.57 26.72 M56.97 105.18 C72.64 87.16, 88.3 69.13, 118.64 34.23 M56.97 105.18 C78.48 80.44, 99.99 55.69, 118.64 34.23 M64.32 108.92 C78.68 92.4, 93.04 75.88, 121.4 43.26 M64.32 108.92 C83.57 86.77, 102.82 64.63, 121.4 43.26 M74.95 108.88 C86.67 95.4, 98.4 81.91, 122.19 54.54 M74.95 108.88 C92.76 88.39, 110.57 67.9, 122.19 54.54 M84.93 109.6 C96.8 95.95, 108.67 82.29, 124.29 64.32 M84.93 109.6 C96.97 95.75, 109.01 81.9, 124.29 64.32 M101.46 102.77 C107.79 95.5, 114.12 88.22, 126.39 74.1 M101.46 102.77 C107.12 96.27, 112.77 89.76, 126.39 74.1 M54.11 102.37 C54.11 102.37, 54.11 102.37, 54.11 102.37 M54.11 102.37 C54.11 102.37, 54.11 102.37, 54.11 102.37 M63.89 100.27 C61.28 98.01, 58.67 95.74, 56.34 93.71 M63.89 100.27 C60.97 97.74, 58.06 95.2, 56.34 93.71 M81.21 104.73 C70.31 95.25, 59.4 85.77, 53.29 80.46 M81.21 104.73 C73.97 98.43, 66.72 92.14, 53.29 80.46 M90.99 102.63 C78.17 91.48, 65.34 80.34, 54.01 70.48 M90.99 102.63 C76.42 89.97, 61.86 77.31, 54.01 70.48 M101.52 101.18 C85.79 87.51, 70.06 73.84, 44.92 51.98 M101.52 101.18 C83.36 85.4, 65.19 69.61, 44.92 51.98 M109.79 97.77 C91.9 82.22, 74.01 66.67, 32.81 30.85 M109.79 97.77 C91.5 81.87, 73.21 65.97, 32.81 30.85 M117.3 93.7 C78.48 59.96, 39.66 26.22, 4.09 -4.71 M117.3 93.7 C82.6 63.53, 47.89 33.37, 4.09 -4.71 M122.55 87.66 C85.59 55.53, 48.63 23.41, 9.34 -10.74 M122.55 87.66 C82.25 52.63, 41.95 17.6, 9.34 -10.74 M124.78 79 C82.68 42.41, 40.59 5.82, 15.34 -16.13 M124.78 79 C83.23 42.88, 41.68 6.77, 15.34 -16.13 M125.5 69.03 C93.68 41.37, 61.87 13.72, 20.59 -22.16 M125.5 69.03 C100.62 47.4, 75.73 25.77, 20.59 -22.16 M125.46 58.4 C90.62 28.11, 55.77 -2.18, 26.6 -27.55 M125.46 58.4 C90.51 28.01, 55.55 -2.37, 26.6 -27.55 M124.67 47.11 C89.93 16.91, 55.18 -13.3, 34.86 -30.96 M124.67 47.11 C104.96 29.97, 85.24 12.83, 34.86 -30.96 M114.07 27.3 C90.61 6.9, 67.14 -13.5, 46.15 -31.75 M114.07 27.3 C94.28 10.09, 74.48 -7.12, 46.15 -31.75 M108 11.42 C88.63 -5.42, 69.26 -22.26, 52.91 -36.47 M108 11.42 C91.95 -2.53, 75.9 -16.48, 52.91 -36.47 M107.97 0.79 C98.97 -7.04, 89.97 -14.86, 65.7 -35.95 M107.97 0.79 C95.01 -10.48, 82.04 -21.75, 65.7 -35.95" stroke="#ced4da" stroke-width="1" fill="none"></path><path d="M0 0 C3.17 -3.41, 13.16 -15.36, 19.01 -20.48 C24.86 -25.59, 27.79 -28.76, 35.1 -30.71 C42.41 -32.66, 55.09 -32.66, 62.89 -32.18 C70.69 -31.69, 76.54 -30.96, 81.9 -27.79 C87.26 -24.62, 91.41 -18.77, 95.06 -13.16 C98.72 -7.56, 100.91 -1.22, 103.84 5.85 C106.76 12.92, 109.93 21.45, 112.61 29.25 C115.29 37.05, 118.22 45.58, 119.93 52.65 C121.63 59.72, 122.85 65.33, 122.85 71.66 C122.85 78, 122.36 86.04, 119.93 90.68 C117.49 95.31, 112.86 97.26, 108.23 99.45 C103.59 101.64, 98.72 102.86, 92.14 103.84 C85.56 104.81, 75.08 105.54, 68.74 105.3 C62.4 105.06, 56.79 106.28, 54.11 102.38 C51.43 98.48, 53.87 87.51, 52.65 81.9 C51.43 76.29, 49.48 74.34, 46.8 68.74 C44.12 63.13, 40.71 56.31, 36.56 48.26 C32.42 40.22, 28.03 28.52, 21.94 20.48 C15.84 12.43, 3.66 3.41, 0 0 M0 0 C3.17 -3.41, 13.16 -15.36, 19.01 -20.48 C24.86 -25.59, 27.79 -28.76, 35.1 -30.71 C42.41 -32.66, 55.09 -32.66, 62.89 -32.18 C70.69 -31.69, 76.54 -30.96, 81.9 -27.79 C87.26 -24.62, 91.41 -18.77, 95.06 -13.16 C98.72 -7.56, 100.91 -1.22, 103.84 5.85 C106.76 12.92, 109.93 21.45, 112.61 29.25 C115.29 37.05, 118.22 45.58, 119.93 52.65 C121.63 59.72, 122.85 65.33, 122.85 71.66 C122.85 78, 122.36 86.04, 119.93 90.68 C117.49 95.31, 112.86 97.26, 108.23 99.45 C103.59 101.64, 98.72 102.86, 92.14 103.84 C85.56 104.81, 75.08 105.54, 68.74 105.3 C62.4 105.06, 56.79 106.28, 54.11 102.38 C51.43 98.48, 53.87 87.51, 52.65 81.9 C51.43 76.29, 49.48 74.34, 46.8 68.74 C44.12 63.13, 40.71 56.31, 36.56 48.26 C32.42 40.22, 28.03 28.52, 21.94 20.48 C15.84 12.43, 3.66 3.41, 0 0" stroke="#000000" stroke-width="2" fill="none"></path></g></g><mask></mask><g stroke-linecap="round"><g transform="translate(1075.4276275022853 841.1000100228994) rotate(0 -59.23184226538365 44.80148356760765)" fill-rule="evenodd"><path d="M-84.89 -16.82 C-84.89 -16.82, -84.89 -16.82, -84.89 -16.82 M-84.89 -16.82 C-84.89 -16.82, -84.89 -16.82, -84.89 -16.82 M-98.54 11.07 C-87.06 -2.13, -75.59 -15.33, -67.05 -25.16 M-98.54 11.07 C-87.68 -1.42, -76.82 -13.92, -67.05 -25.16 M-107.59 33.68 C-95.89 20.22, -84.19 6.76, -55.76 -25.95 M-107.59 33.68 C-87.37 10.42, -67.15 -12.84, -55.76 -25.95 M-114.02 53.26 C-95.83 32.34, -77.64 11.42, -43.82 -27.49 M-114.02 53.26 C-88.7 24.14, -63.38 -4.99, -43.82 -27.49 M-116.51 68.32 C-93.68 42.07, -70.86 15.82, -34.5 -26.01 M-116.51 68.32 C-96.99 45.87, -77.47 23.42, -34.5 -26.01 M-115.06 78.86 C-90.11 50.15, -65.15 21.44, -26.49 -23.03 M-115.06 78.86 C-91.23 51.45, -67.41 24.04, -26.49 -23.03 M-113.62 89.39 C-80.35 51.11, -47.08 12.84, -19.14 -19.29 M-113.62 89.39 C-88.45 60.44, -63.29 31.5, -19.14 -19.29 M-111.51 99.16 C-76.19 58.52, -40.86 17.88, -12.45 -14.8 M-111.51 99.16 C-80.98 64.04, -50.45 28.92, -12.45 -14.8 M-105.48 104.41 C-81.21 76.5, -56.95 48.58, -7.07 -8.79 M-105.48 104.41 C-82.02 77.42, -58.56 50.44, -7.07 -8.79 M-98.13 108.15 C-63.61 68.45, -29.1 28.74, -1.69 -2.79 M-98.13 108.15 C-62.79 67.5, -27.45 26.84, -1.69 -2.79 M-91.43 112.64 C-67.99 85.67, -44.54 58.7, -15.99 25.85 M-91.43 112.64 C-63.71 80.75, -35.99 48.86, -15.99 25.85 M-83.43 115.63 C-66.97 96.69, -50.5 77.76, -30.29 54.5 M-83.43 115.63 C-63.12 92.27, -42.82 68.91, -30.29 54.5 M-74.11 117.1 C-64.19 105.69, -54.27 94.28, -33.43 70.31 M-74.11 117.1 C-61.22 102.28, -48.34 87.46, -33.43 70.31 M-64.79 118.58 C-54.14 106.33, -43.49 94.08, -37.24 86.88 M-64.79 118.58 C-55.33 107.69, -45.87 96.81, -37.24 86.88 M-55.47 120.05 C-48.69 112.25, -41.91 104.46, -32.51 93.64 M-55.47 120.05 C-46.3 109.5, -37.12 98.94, -32.51 93.64 M-110.71 99.93 C-110.71 99.93, -110.71 99.93, -110.71 99.93 M-110.71 99.93 C-110.71 99.93, -110.71 99.93, -110.71 99.93 M-87.35 109.63 C-94.93 103.05, -102.5 96.47, -116.03 84.7 M-87.35 109.63 C-98.23 100.18, -109.11 90.72, -116.03 84.7 M-74.56 110.16 C-89.83 96.88, -105.1 83.6, -116.82 73.42 M-74.56 110.16 C-87.5 98.91, -100.44 87.66, -116.82 73.42 M-60.25 111.99 C-76.75 97.65, -93.25 83.31, -115.35 64.1 M-60.25 111.99 C-75.09 99.1, -89.92 86.2, -115.35 64.1 M-43.68 115.79 C-68.81 93.96, -93.93 72.12, -113.87 54.78 M-43.68 115.79 C-67.14 95.4, -90.6 75.01, -113.87 54.78 M-38.43 109.76 C-60.22 90.82, -82.01 71.88, -110.89 46.78 M-38.43 109.76 C-62.52 88.82, -86.61 67.88, -110.89 46.78 M-37.71 99.78 C-57.31 82.75, -76.91 65.71, -108.66 38.11 M-37.71 99.78 C-63.33 77.52, -88.94 55.26, -108.66 38.11 M-37.75 89.15 C-59.29 70.43, -80.83 51.71, -105.67 30.11 M-37.75 89.15 C-56.93 72.48, -76.11 55.8, -105.67 30.11 M-36.27 79.84 C-52.24 65.95, -68.21 52.07, -102.69 22.1 M-36.27 79.84 C-51.21 66.85, -66.14 53.87, -102.69 22.1 M-34.04 71.17 C-56.88 51.33, -79.71 31.48, -99.7 14.1 M-34.04 71.17 C-52.58 55.06, -71.11 38.95, -99.7 14.1 M-32.57 61.86 C-53.16 43.96, -73.75 26.06, -95.97 6.75 M-32.57 61.86 C-46.14 50.06, -59.72 38.26, -95.97 6.75 M-30.34 53.19 C-51.76 34.58, -73.17 15.96, -92.98 -1.26 M-30.34 53.19 C-51.98 34.38, -73.61 15.58, -92.98 -1.26 M-26.6 45.84 C-49.02 26.36, -71.43 6.88, -90 -9.27 M-26.6 45.84 C-43.53 31.13, -60.45 16.42, -90 -9.27 M-23.62 37.84 C-48.3 16.38, -72.97 -5.07, -85.5 -15.96 M-23.62 37.84 C-44.35 19.81, -65.09 1.79, -85.5 -15.96 M-19.88 30.49 C-38.04 14.7, -56.21 -1.1, -80.25 -22 M-19.88 30.49 C-42.32 10.98, -64.77 -8.53, -80.25 -22 M-16.14 23.14 C-37.5 4.57, -58.87 -14, -74.25 -27.38 M-16.14 23.14 C-37.32 4.72, -58.51 -13.69, -74.25 -27.38 M-11.64 16.44 C-27.24 2.89, -42.84 -10.67, -65.23 -30.14 M-11.64 16.44 C-31.29 -0.64, -50.95 -17.72, -65.23 -30.14 M-7.15 9.75 C-18.93 -0.48, -30.7 -10.72, -54.7 -31.58 M-7.15 9.75 C-26.03 -6.66, -44.91 -23.07, -54.7 -31.58 M-1.9 3.71 C-17.83 -10.13, -33.76 -23.98, -41.9 -31.06 M-1.9 3.71 C-15.51 -8.12, -29.12 -19.94, -41.9 -31.06" stroke="#ced4da" stroke-width="1" fill="none"></path><path d="M0 0 C-2.44 -2.68, -9.51 -11.7, -14.63 -16.09 C-19.74 -20.48, -23.4 -24.38, -30.71 -26.33 C-38.03 -28.28, -50.7 -28.28, -58.5 -27.79 C-66.3 -27.3, -72.15 -26.57, -77.51 -23.4 C-82.88 -20.23, -87.02 -14.38, -90.68 -8.78 C-94.33 -3.17, -96.53 3.17, -99.45 10.24 C-102.38 17.31, -105.54 25.84, -108.23 33.64 C-110.91 41.44, -113.83 49.97, -115.54 57.04 C-117.24 64.11, -118.46 69.71, -118.46 76.05 C-118.46 82.39, -117.98 90.43, -115.54 95.06 C-113.1 99.69, -108.23 101.16, -103.84 103.84 C-99.45 106.52, -95.55 109.2, -89.21 111.15 C-82.88 113.1, -73.86 114.81, -65.81 115.54 C-57.77 116.27, -45.58 119.93, -40.95 115.54 C-36.32 111.15, -39 95.79, -38.03 89.21 C-37.05 82.63, -36.32 81.9, -35.1 76.05 C-33.88 70.2, -33.64 62.64, -30.71 54.11 C-27.79 45.58, -22.67 33.88, -17.55 24.86 C-12.43 15.84, -2.93 4.14, 0 0 M0 0 C-2.44 -2.68, -9.51 -11.7, -14.63 -16.09 C-19.74 -20.48, -23.4 -24.38, -30.71 -26.33 C-38.03 -28.28, -50.7 -28.28, -58.5 -27.79 C-66.3 -27.3, -72.15 -26.57, -77.51 -23.4 C-82.88 -20.23, -87.02 -14.38, -90.68 -8.78 C-94.33 -3.17, -96.53 3.17, -99.45 10.24 C-102.38 17.31, -105.54 25.84, -108.23 33.64 C-110.91 41.44, -113.83 49.97, -115.54 57.04 C-117.24 64.11, -118.46 69.71, -118.46 76.05 C-118.46 82.39, -117.98 90.43, -115.54 95.06 C-113.1 99.69, -108.23 101.16, -103.84 103.84 C-99.45 106.52, -95.55 109.2, -89.21 111.15 C-82.88 113.1, -73.86 114.81, -65.81 115.54 C-57.77 116.27, -45.58 119.93, -40.95 115.54 C-36.32 111.15, -39 95.79, -38.03 89.21 C-37.05 82.63, -36.32 81.9, -35.1 76.05 C-33.88 70.2, -33.64 62.64, -30.71 54.11 C-27.79 45.58, -22.67 33.88, -17.55 24.86 C-12.43 15.84, -2.93 4.14, 0 0" stroke="#000000" stroke-width="2" fill="none"></path></g></g><mask></mask><g transform="translate(1052.9340170763498 325.3534479744121) rotate(0 189.7964477539062 51.63365100986084)"><text x="0" y="0" font-family="Virgil, Segoe UI Emoji" font-size="82.61384161577708px" fill="#000000" text-anchor="start" style="white-space: pre;" direction="ltr" dominant-baseline="text-before-edge">PLatfrom</text></g><g stroke-linecap="round"><g transform="translate(1041.420866816149 285.4801829485368) rotate(0 106.65300396727747 -90.0313226149483)" fill-rule="evenodd"><path d="M37.81 -142.03 C37.81 -142.03, 37.81 -142.03, 37.81 -142.03 M37.81 -142.03 C37.81 -142.03, 37.81 -142.03, 37.81 -142.03 M17.61 -106.59 C32.54 -123.77, 47.48 -140.95, 70.09 -166.97 M17.61 -106.59 C29.97 -120.81, 42.33 -135.03, 70.09 -166.97 M13.81 -90.02 C37.01 -116.72, 60.22 -143.42, 89.91 -177.57 M13.81 -90.02 C36.84 -116.52, 59.88 -143.02, 89.91 -177.57 M11.31 -74.97 C36.11 -103.49, 60.9 -132.01, 101.19 -178.36 M11.31 -74.97 C45.97 -114.83, 80.62 -154.69, 101.19 -178.36 M8.82 -59.91 C47.06 -103.9, 85.31 -147.89, 111.17 -177.64 M8.82 -59.91 C39.82 -95.56, 70.81 -131.21, 111.17 -177.64 M12.24 -51.64 C51.12 -96.37, 90 -141.1, 120.49 -176.17 M12.24 -51.64 C48.94 -93.86, 85.64 -136.08, 120.49 -176.17 M10.4 -37.33 C43.2 -75.06, 75.99 -112.79, 128.49 -173.18 M10.4 -37.33 C51.06 -84.11, 91.72 -130.88, 128.49 -173.18 M8.57 -23.03 C54.23 -75.56, 99.9 -128.09, 135.84 -169.44 M8.57 -23.03 C38.39 -57.34, 68.22 -91.65, 135.84 -169.44 M7.39 -9.48 C50.15 -58.67, 92.91 -107.86, 142.54 -164.95 M7.39 -9.48 C46.64 -54.64, 85.9 -99.8, 142.54 -164.95 M5.55 4.83 C41.14 -36.12, 76.74 -77.06, 148.57 -159.7 M5.55 4.83 C42.69 -37.9, 79.83 -80.62, 148.57 -159.7 M16.18 4.79 C63.1 -49.17, 110.01 -103.14, 154.61 -154.45 M16.18 4.79 C51.42 -35.74, 86.66 -76.28, 154.61 -154.45 M26.81 4.76 C74.14 -49.68, 121.46 -104.12, 160.65 -149.2 M26.81 4.76 C60.72 -34.25, 94.62 -73.25, 160.65 -149.2 M36.79 5.48 C81.3 -45.73, 125.82 -96.94, 166.03 -143.2 M36.79 5.48 C88.47 -53.97, 140.15 -113.42, 166.03 -143.2 M47.42 5.44 C90.25 -43.83, 133.08 -93.1, 170.76 -136.44 M47.42 5.44 C84.86 -37.63, 122.31 -80.71, 170.76 -136.44 M58.05 5.41 C91.38 -32.93, 124.71 -71.28, 176.14 -130.44 M58.05 5.41 C98.16 -40.73, 138.27 -86.87, 176.14 -130.44 M68.68 5.37 C97.01 -27.22, 125.34 -59.81, 180.21 -122.93 M68.68 5.37 C107.57 -39.37, 146.47 -84.11, 180.21 -122.93 M78.65 6.1 C105.39 -24.66, 132.12 -55.41, 184.93 -116.17 M78.65 6.1 C114.49 -35.13, 150.33 -76.36, 184.93 -116.17 M89.28 6.06 C114.03 -22.41, 138.77 -50.87, 189 -108.66 M89.28 6.06 C126.88 -37.19, 164.48 -80.45, 189 -108.66 M103.85 1.5 C130.75 -29.45, 157.66 -60.4, 193.07 -101.14 M103.85 1.5 C131.14 -29.89, 158.43 -61.29, 193.07 -101.14 M114.48 1.46 C135.46 -22.67, 156.44 -46.81, 197.14 -93.63 M114.48 1.46 C133.23 -20.11, 151.98 -41.67, 197.14 -93.63 M125.76 0.67 C143.07 -19.24, 160.38 -39.15, 200.55 -85.36 M125.76 0.67 C141.38 -17.29, 157 -35.26, 200.55 -85.36 M135.74 1.39 C159.52 -25.97, 183.31 -53.33, 204.62 -77.85 M135.74 1.39 C162.35 -29.22, 188.96 -59.83, 204.62 -77.85 M147.02 0.61 C170.59 -26.51, 194.16 -53.62, 207.38 -68.83 M147.02 0.61 C162.68 -17.41, 178.34 -35.42, 207.38 -68.83 M158.31 -0.18 C176.28 -20.86, 194.25 -41.53, 210.14 -59.81 M158.31 -0.18 C178.72 -23.66, 199.13 -47.14, 210.14 -59.81 M167.63 1.29 C180.21 -13.18, 192.79 -27.65, 212.9 -50.78 M167.63 1.29 C182.15 -15.42, 196.68 -32.13, 212.9 -50.78 M180.23 -1.01 C188.15 -10.13, 196.08 -19.25, 214.34 -40.25 M180.23 -1.01 C188.33 -10.33, 196.44 -19.66, 214.34 -40.25 M197.42 -8.59 C204.62 -16.87, 211.81 -25.15, 218.41 -32.74 M197.42 -8.59 C203.85 -15.99, 210.29 -23.4, 218.41 -32.74 M0 0 C0 0, 0 0, 0 0 M0 0 C0 0, 0 0, 0 0 M12.04 -0.13 C7.98 -3.67, 3.91 -7.2, 1.47 -9.32 M12.04 -0.13 C8.03 -3.62, 4.02 -7.11, 1.47 -9.32 M24.84 0.39 C17.97 -5.58, 11.1 -11.55, 2.2 -19.29 M24.84 0.39 C19.47 -4.28, 14.1 -8.95, 2.2 -19.29 M36.88 0.26 C25.17 -9.92, 13.47 -20.09, 3.67 -28.61 M36.88 0.26 C25.14 -9.95, 13.4 -20.16, 3.67 -28.61 M49.67 0.78 C32.15 -14.45, 14.64 -29.68, 4.39 -38.58 M49.67 0.78 C39.73 -7.86, 29.79 -16.5, 4.39 -38.58 M61.71 0.65 C42.42 -16.13, 23.13 -32.9, 5.87 -47.9 M61.71 0.65 C45.44 -13.5, 29.16 -27.65, 5.87 -47.9 M74.51 1.17 C50.89 -19.36, 27.28 -39.89, 7.34 -57.22 M74.51 1.17 C54.94 -15.84, 35.38 -32.85, 7.34 -57.22 M86.55 1.04 C70 -13.35, 53.44 -27.74, 8.82 -66.54 M86.55 1.04 C62.71 -19.69, 38.87 -40.41, 8.82 -66.54 M99.35 1.56 C70.95 -23.13, 42.55 -47.82, 11.04 -75.2 M99.35 1.56 C73.67 -20.76, 48 -43.08, 11.04 -75.2 M106.86 -2.51 C73.45 -31.55, 40.05 -60.59, 12.52 -84.52 M106.86 -2.51 C72.66 -32.24, 38.47 -61.96, 12.52 -84.52 M118.9 -2.64 C80.24 -36.25, 41.58 -69.85, 14.75 -93.18 M118.9 -2.64 C87.01 -30.37, 55.11 -58.09, 14.75 -93.18 M130.94 -2.78 C94.69 -34.29, 58.43 -65.81, 16.98 -101.84 M130.94 -2.78 C99.93 -29.74, 68.92 -56.69, 16.98 -101.84 M140.72 -4.88 C101.53 -38.94, 62.35 -73, 19.96 -109.85 M140.72 -4.88 C107.4 -33.84, 74.08 -62.81, 19.96 -109.85 M152 -5.67 C125.64 -28.58, 99.28 -51.5, 22.95 -117.85 M152 -5.67 C113.42 -39.2, 74.84 -72.74, 22.95 -117.85 M166.31 -3.83 C116.64 -47.01, 66.96 -90.19, 26.69 -125.2 M166.31 -3.83 C112.11 -50.95, 57.91 -98.06, 26.69 -125.2 M177.59 -4.62 C139.27 -37.93, 100.96 -71.24, 31.18 -131.9 M177.59 -4.62 C125.44 -49.96, 73.29 -95.29, 31.18 -131.9 M188.13 -6.07 C129.08 -57.39, 70.04 -108.72, 36.43 -137.93 M188.13 -6.07 C145.46 -43.15, 102.8 -80.24, 36.43 -137.93 M197.15 -8.82 C151.67 -48.36, 106.19 -87.9, 40.17 -145.28 M197.15 -8.82 C164.63 -37.09, 132.11 -65.36, 40.17 -145.28 M203.91 -13.55 C156.73 -54.56, 109.55 -95.57, 46.17 -150.67 M203.91 -13.55 C165.51 -46.93, 127.11 -80.3, 46.17 -150.67 M209.91 -18.93 C172.27 -51.65, 134.63 -84.37, 51.42 -156.7 M209.91 -18.93 C167.89 -55.46, 125.87 -91.98, 51.42 -156.7 M213.65 -26.28 C165.29 -68.32, 116.92 -110.36, 57.42 -162.09 M213.65 -26.28 C180.37 -55.2, 147.1 -84.13, 57.42 -162.09 M213.61 -36.91 C183.09 -63.44, 152.57 -89.97, 64.18 -166.81 M213.61 -36.91 C154.83 -88.01, 96.05 -139.1, 64.18 -166.81 M212.07 -48.85 C156.04 -97.56, 100.01 -146.26, 70.18 -172.19 M212.07 -48.85 C158.41 -95.5, 104.75 -142.15, 70.18 -172.19 M214.3 -57.52 C181.8 -85.76, 149.31 -114.01, 78.45 -175.61 M214.3 -57.52 C172.85 -93.55, 131.39 -129.58, 78.45 -175.61 M208.23 -73.39 C174.29 -102.89, 140.36 -132.39, 86.72 -179.02 M208.23 -73.39 C162.37 -113.25, 116.52 -153.12, 86.72 -179.02 M199.89 -91.24 C163.28 -123.06, 126.68 -154.88, 92.72 -184.4 M199.89 -91.24 C160.91 -125.13, 121.92 -159.02, 92.72 -184.4 M189.29 -111.06 C169.98 -127.84, 150.66 -144.63, 107.78 -181.91 M189.29 -111.06 C164.94 -132.23, 140.58 -153.4, 107.78 -181.91 M174.16 -134.81 C162.16 -145.24, 150.17 -155.66, 128.12 -174.83 M174.16 -134.81 C156.55 -150.12, 138.94 -165.42, 128.12 -174.83" stroke="#ced4da" stroke-width="1" fill="none"></path><path d="M0 0 C3.8 -20.01, 6.51 -89.89, 22.79 -120.09 C39.08 -150.29, 72.72 -179.04, 97.69 -181.23 C122.65 -183.41, 154.94 -161.32, 172.58 -133.19 C190.22 -105.06, 232.28 -34.67, 203.52 -12.47 C174.75 9.73, 33.92 -2.08, 0 0 M0 0 C3.8 -20.01, 6.51 -89.89, 22.79 -120.09 C39.08 -150.29, 72.72 -179.04, 97.69 -181.23 C122.65 -183.41, 154.94 -161.32, 172.58 -133.19 C190.22 -105.06, 232.28 -34.67, 203.52 -12.47 C174.75 9.73, 33.92 -2.08, 0 0" stroke="#000000" stroke-width="2" fill="none"></path></g></g><mask></mask><g stroke-linecap="round" transform="translate(1092.8639724548857 10) rotate(0 52.100302332279 45.58776454074359)"><path d="M11.03 17.54 C11.03 17.54, 11.03 17.54, 11.03 17.54 M11.03 17.54 C11.03 17.54, 11.03 17.54, 11.03 17.54 M1.32 40.9 C10.12 30.77, 18.93 20.64, 32.81 4.67 M1.32 40.9 C7.72 33.54, 14.11 26.18, 32.81 4.67 M1.45 52.94 C15.74 36.5, 30.03 20.06, 46.06 1.62 M1.45 52.94 C11.82 41.01, 22.19 29.08, 46.06 1.62 M5.52 60.45 C17.62 46.53, 29.72 32.61, 55.38 3.09 M5.52 60.45 C23.8 39.42, 42.08 18.39, 55.38 3.09 M8.28 69.47 C29.15 45.46, 50.03 21.45, 66.67 2.3 M8.28 69.47 C28.13 46.63, 47.99 23.8, 66.67 2.3 M13.66 75.48 C29.52 57.23, 45.38 38.99, 74.67 5.29 M13.66 75.48 C29.08 57.74, 44.5 40, 74.67 5.29 M19.04 81.48 C39.8 57.6, 60.56 33.71, 82.02 9.03 M19.04 81.48 C36.08 61.88, 53.12 42.27, 82.02 9.03 M26.39 85.22 C40.76 68.69, 55.13 52.16, 88.72 13.52 M26.39 85.22 C46.63 61.93, 66.88 38.65, 88.72 13.52 M33.74 88.96 C46.62 74.15, 59.49 59.34, 94.76 18.77 M33.74 88.96 C46.7 74.05, 59.66 59.14, 94.76 18.77 M41.75 91.94 C53.64 78.26, 65.54 64.57, 100.14 24.77 M41.75 91.94 C59.03 72.06, 76.31 52.18, 100.14 24.77 M52.38 91.91 C68.84 72.97, 85.3 54.04, 102.89 33.79 M52.38 91.91 C62.67 80.06, 72.97 68.22, 102.89 33.79 M61.7 93.38 C78.59 73.95, 95.49 54.51, 106.31 42.06 M61.7 93.38 C76.4 76.46, 91.11 59.54, 106.31 42.06 M78.89 85.8 C87.34 76.08, 95.79 66.35, 103.16 57.88 M78.89 85.8 C86.97 76.5, 95.06 67.2, 103.16 57.88 M15.58 78.1 C15.58 78.1, 15.58 78.1, 15.58 78.1 M15.58 78.1 C15.58 78.1, 15.58 78.1, 15.58 78.1 M39.7 88.47 C28.51 78.74, 17.32 69.01, 2.72 56.32 M39.7 88.47 C27.18 77.59, 14.66 66.71, 2.72 56.32 M53.25 89.65 C38.62 76.93, 23.99 64.21, 1.17 44.38 M53.25 89.65 C38.27 76.63, 23.3 63.61, 1.17 44.38 M62.27 86.89 C40.9 68.31, 19.53 49.73, 3.4 35.72 M62.27 86.89 C50.01 76.23, 37.75 65.57, 3.4 35.72 M73.56 86.1 C49.07 64.81, 24.57 43.52, 4.88 26.4 M73.56 86.1 C46.89 62.92, 20.22 39.74, 4.88 26.4 M81.07 82.03 C62.88 66.21, 44.68 50.4, 9.37 19.7 M81.07 82.03 C53.77 58.3, 26.46 34.56, 9.37 19.7 M87.83 77.3 C63.6 56.24, 39.37 35.18, 14.62 13.67 M87.83 77.3 C65.52 57.92, 43.22 38.53, 14.62 13.67 M94.58 72.58 C76.35 56.73, 58.12 40.88, 21.38 8.94 M94.58 72.58 C69.38 50.67, 44.18 28.76, 21.38 8.94 M99.08 65.88 C74.02 44.1, 48.97 22.32, 28.14 4.22 M99.08 65.88 C81.35 50.48, 63.63 35.07, 28.14 4.22 M103.57 59.19 C78.23 37.17, 52.9 15.14, 35.65 0.15 M103.57 59.19 C87.47 45.19, 71.37 31.2, 35.65 0.15 M105.05 49.87 C86.06 33.37, 67.08 16.86, 46.18 -1.3 M105.05 49.87 C88.14 35.18, 71.23 20.48, 46.18 -1.3 M104.26 38.59 C95.35 30.85, 86.45 23.1, 59.73 -0.12 M104.26 38.59 C93.24 29.01, 82.23 19.44, 59.73 -0.12 M97.43 22.05 C91.99 17.33, 86.56 12.6, 78.56 5.65 M97.43 22.05 C91.2 16.64, 84.98 11.23, 78.56 5.65" stroke="#ced4da" stroke-width="1" fill="none"></path><path d="M104.2 45.59 C104.2 47.57, 104.05 49.57, 103.75 51.54 C103.46 53.5, 103.01 55.47, 102.43 57.39 C101.84 59.3, 101.1 61.2, 100.23 63.03 C99.37 64.87, 98.35 66.66, 97.22 68.38 C96.09 70.1, 94.81 71.77, 93.43 73.34 C92.05 74.91, 90.54 76.42, 88.94 77.82 C87.34 79.23, 85.62 80.55, 83.82 81.75 C82.02 82.96, 80.11 84.08, 78.15 85.07 C76.19 86.06, 74.13 86.95, 72.04 87.71 C69.94 88.46, 67.77 89.11, 65.58 89.62 C63.4 90.14, 61.15 90.53, 58.9 90.79 C56.65 91.04, 54.37 91.18, 52.1 91.18 C49.83 91.18, 47.55 91.04, 45.3 90.79 C43.05 90.53, 40.81 90.14, 38.62 89.62 C36.43 89.11, 34.26 88.46, 32.16 87.71 C30.07 86.95, 28.01 86.06, 26.05 85.07 C24.09 84.08, 22.18 82.96, 20.38 81.75 C18.59 80.55, 16.86 79.23, 15.26 77.82 C13.66 76.42, 12.15 74.91, 10.77 73.34 C9.39 71.77, 8.11 70.1, 6.98 68.38 C5.85 66.66, 4.83 64.87, 3.97 63.03 C3.1 61.2, 2.36 59.3, 1.78 57.39 C1.19 55.47, 0.74 53.5, 0.45 51.54 C0.15 49.57, 0 47.57, 0 45.59 C0 43.6, 0.15 41.6, 0.45 39.64 C0.74 37.67, 1.19 35.7, 1.78 33.79 C2.36 31.87, 3.1 29.97, 3.97 28.14 C4.83 26.31, 5.85 24.51, 6.98 22.79 C8.11 21.08, 9.39 19.41, 10.77 17.84 C12.15 16.26, 13.66 14.75, 15.26 13.35 C16.86 11.95, 18.59 10.63, 20.38 9.42 C22.18 8.21, 24.09 7.1, 26.05 6.11 C28.01 5.12, 30.07 4.23, 32.16 3.47 C34.26 2.71, 36.43 2.07, 38.62 1.55 C40.81 1.04, 43.05 0.65, 45.3 0.39 C47.55 0.13, 49.83 0, 52.1 0 C54.37 0, 56.65 0.13, 58.9 0.39 C61.15 0.65, 63.4 1.04, 65.58 1.55 C67.77 2.07, 69.94 2.71, 72.04 3.47 C74.13 4.23, 76.19 5.12, 78.15 6.11 C80.11 7.1, 82.02 8.21, 83.82 9.42 C85.62 10.63, 87.34 11.95, 88.94 13.35 C90.54 14.75, 92.05 16.26, 93.43 17.84 C94.81 19.41, 96.09 21.08, 97.22 22.79 C98.35 24.51, 99.37 26.31, 100.23 28.14 C101.1 29.97, 101.84 31.87, 102.43 33.79 C103.01 35.7, 103.46 37.67, 103.75 39.64 C104.05 41.6, 104.13 44.6, 104.2 45.59 C104.27 46.58, 104.27 44.6, 104.2 45.59" stroke="#000000" stroke-width="2" fill="none"></path></g><g stroke-linecap="round"><g transform="translate(1107.240512018778 379.83870442720945) rotate(0 0 0)"><path d="M0 0 C0 0, 0 0, 0 0 M0 0 C0 0, 0 0, 0 0" stroke="#343a40" stroke-width="4" fill="none"></path></g></g><mask></mask><g stroke-linecap="round"><g transform="translate(1040.5736419015907 188.17191060396726) rotate(0 -88.56735166143255 293.3332824707031)"><path d="M0 0 C-29.44 48.89, -168.06 195.56, -176.67 293.33 C-185.28 391.11, -72.5 537.78, -51.67 586.67 M0 0 C-29.44 48.89, -168.06 195.56, -176.67 293.33 C-185.28 391.11, -72.5 537.78, -51.67 586.67" stroke="#343a40" stroke-width="4" fill="none"></path></g><g transform="translate(1040.5736419015907 188.17191060396726) rotate(0 -88.56735166143255 293.3332824707031)"><path d="M-74.53 567.24 C-68.09 572.71, -61.66 578.18, -51.67 586.67 M-74.53 567.24 C-69.25 571.73, -63.97 576.21, -51.67 586.67" stroke="#343a40" stroke-width="4" fill="none"></path></g><g transform="translate(1040.5736419015907 188.17191060396726) rotate(0 -88.56735166143255 293.3332824707031)"><path d="M-56.69 557.09 C-55.28 565.42, -53.86 573.74, -51.67 586.67 M-56.69 557.09 C-55.53 563.92, -54.37 570.75, -51.67 586.67" stroke="#343a40" stroke-width="4" fill="none"></path></g></g><mask></mask><g stroke-linecap="round"><g transform="translate(302.24051201877865 204.83885701509644) rotate(0 384.16671752929665 -42.04330736824704)"><path d="M0 0 C63.33 -12.78, 251.94 -63.06, 380 -76.67 C508.06 -90.28, 703.61 -80.83, 768.33 -81.67 M0 0 C63.33 -12.78, 251.94 -63.06, 380 -76.67 C508.06 -90.28, 703.61 -80.83, 768.33 -81.67" stroke="#343a40" stroke-width="4" fill="none"></path></g><g transform="translate(302.24051201877865 204.83885701509644) rotate(0 384.16671752929665 -42.04330736824704)"><path d="M740.01 -71.77 C751.31 -75.72, 762.61 -79.67, 768.33 -81.67 M740.01 -71.77 C750.05 -75.28, 760.09 -78.79, 768.33 -81.67" stroke="#343a40" stroke-width="4" fill="none"></path></g><g transform="translate(302.24051201877865 204.83885701509644) rotate(0 384.16671752929665 -42.04330736824704)"><path d="M740.28 -92.29 C751.47 -88.05, 762.66 -83.81, 768.33 -81.67 M740.28 -92.29 C750.22 -88.52, 760.17 -84.76, 768.33 -81.67" stroke="#343a40" stroke-width="4" fill="none"></path></g></g><mask></mask><g stroke-linecap="round"><g transform="translate(247.24058831272396 401.5052693686157) rotate(0 350.0000762939451 247.50000000000182)"><path d="M0 0 C47.5 41.67, 168.33 167.5, 285 250 C401.67 332.5, 630.83 454.17, 700 495 M0 0 C47.5 41.67, 168.33 167.5, 285 250 C401.67 332.5, 630.83 454.17, 700 495" stroke="#343a40" stroke-width="4" fill="none"></path></g><g transform="translate(247.24058831272396 401.5052693686157) rotate(0 350.0000762939451 247.50000000000182)"><path d="M670.41 490.09 C680.71 491.8, 691.02 493.51, 700 495 M670.41 490.09 C677.85 491.32, 685.3 492.56, 700 495" stroke="#343a40" stroke-width="4" fill="none"></path></g><g transform="translate(247.24058831272396 401.5052693686157) rotate(0 350.0000762939451 247.50000000000182)"><path d="M680.49 472.21 C687.28 480.15, 694.08 488.08, 700 495 M680.49 472.21 C685.4 477.95, 690.31 483.68, 700 495" stroke="#343a40" stroke-width="4" fill="none"></path></g></g><mask></mask><g transform="translate(720.4902983957313 319.83862813326414) rotate(0 150.08395385742188 22.5)"><text x="150.08395385742188" y="0" font-family="Virgil, Segoe UI Emoji" font-size="36px" fill="#343a40" text-anchor="middle" style="white-space: pre;" direction="ltr" dominant-baseline="text-before-edge">1. Create lottery</text></g><g transform="translate(473.9625426584265 86.50519307467039) rotate(0 158.27789306640625 29.82330111587362)"><text x="158.27789306640625" y="0" font-family="Virgil, Segoe UI Emoji" font-size="47.717281785398974px" fill="#343a40" text-anchor="middle" style="white-space: pre;" direction="ltr" dominant-baseline="text-before-edge">2. Buy ticket</text></g><g stroke-linecap="round"><g transform="translate(1270.574252253153 194.83862813326414) rotate(0 101.6663360595831 343.3333206176758)"><path d="M0 0 C33.89 60.56, 203.33 248.89, 203.33 363.33 C203.33 477.78, 33.89 632.78, 0 686.67 M0 0 C33.89 60.56, 203.33 248.89, 203.33 363.33 C203.33 477.78, 33.89 632.78, 0 686.67" stroke="#343a40" stroke-width="4" fill="none"></path></g><g transform="translate(1270.574252253153 194.83862813326414) rotate(0 101.6663360595831 343.3333206176758)"><path d="M9.9 658.35 C6.85 667.08, 3.8 675.8, 0 686.67 M9.9 658.35 C6.42 668.3, 2.94 678.26, 0 686.67" stroke="#343a40" stroke-width="4" fill="none"></path></g><g transform="translate(1270.574252253153 194.83862813326414) rotate(0 101.6663360595831 343.3333206176758)"><path d="M25.79 671.34 C17.84 676.06, 9.89 680.79, 0 686.67 M25.79 671.34 C16.72 676.73, 7.66 682.11, 0 686.67" stroke="#343a40" stroke-width="4" fill="none"></path></g></g><mask></mask><g transform="translate(1237.8951140695592 473.1719868979126) rotate(0 141.011962890625 22.5)"><text x="141.011962890625" y="0" font-family="Virgil, Segoe UI Emoji" font-size="36px" fill="#343a40" text-anchor="middle" style="white-space: pre;" direction="ltr" dominant-baseline="text-before-edge">3. Draw lottery</text></g><g transform="translate(331.37977898655186 613.1719868979126) rotate(0 139.19393920898438 45)"><text x="139.19393920898438" y="0" font-family="Virgil, Segoe UI Emoji" font-size="36px" fill="#343a40" text-anchor="middle" style="white-space: pre;" direction="ltr" dominant-baseline="text-before-edge">4. Claim lottery</text><text x="139.19393920898438" y="45" font-family="Virgil, Segoe UI Emoji" font-size="36px" fill="#343a40" text-anchor="middle" style="white-space: pre;" direction="ltr" dominant-baseline="text-before-edge"></text></g><g stroke-linecap="round" transform="translate(68.26190766390084 104.083367885185) rotate(0 51.014538946267464 39.56132005095424)"><path d="M36.17 1.61 C44.07 -1.27, 54.59 -1.46, 63.37 0.42 C72.16 2.31, 82.5 7.38, 88.87 12.92 C95.23 18.45, 100.12 26.69, 101.56 33.65 C103.01 40.61, 101.08 48.19, 97.52 54.66 C93.95 61.14, 87.59 68.37, 80.19 72.49 C72.79 76.61, 62.31 79.12, 53.13 79.38 C43.94 79.63, 33.23 77.71, 25.1 74.03 C16.97 70.36, 8.4 63.88, 4.36 57.31 C0.31 50.74, -0.31 41.62, 0.81 34.62 C1.94 27.61, 5.1 20.89, 11.1 15.27 C17.11 9.65, 32.17 2.95, 36.82 0.88 C41.48 -1.19, 38.86 2.06, 39.03 2.84 M59.32 0.7 C67.88 1.23, 78.42 4.89, 85.44 9.68 C92.47 14.47, 99.2 22.51, 101.48 29.43 C103.76 36.35, 102.24 44.39, 99.14 51.18 C96.03 57.98, 90.01 65.81, 82.85 70.19 C75.69 74.57, 65.38 76.64, 56.17 77.48 C46.96 78.31, 35.88 77.94, 27.6 75.18 C19.31 72.42, 10.8 67.14, 6.44 60.93 C2.09 54.71, 1.16 45.08, 1.45 37.91 C1.74 30.74, 3.3 23.8, 8.19 17.91 C13.08 12.01, 22.09 5.41, 30.8 2.54 C39.51 -0.32, 55.72 0.89, 60.45 0.71 C65.17 0.53, 59.5 0.76, 59.15 1.46" stroke="#000000" stroke-width="1" fill="none"></path></g><g stroke-linecap="round"><g transform="translate(119.74439917602427 186.47066270812502) rotate(0 3.23809842414704 117.92258658134779)"><path d="M-0.75 0.45 C0.52 40, 6.11 197.21, 7.22 236.2 M1.06 -0.35 C2.28 38.96, 6.12 195.29, 6.77 234.55" stroke="#000000" stroke-width="1" fill="none"></path></g></g><mask></mask><g stroke-linecap="round"><g transform="translate(10.015309406584151 233.263248697971) rotate(0 114.14278100602739 -1.8058478794628172)"><path d="M0.95 0.9 C39.12 0.07, 190.53 -3.79, 228.3 -4.51 M-0.02 0.32 C38.04 -0.42, 188.86 -3.08, 227.17 -3.46" stroke="#000000" stroke-width="1" fill="none"></path></g></g><mask></mask><g stroke-linecap="round"><g transform="translate(30.504526384312726 507.55150363633584) rotate(0 46.47644620425325 -42.23348349308799)"><path d="M-0.34 -0.94 C14.69 -15.37, 75.72 -71.55, 91.16 -85.64 M1.68 1.18 C16.99 -13.1, 78.33 -69.81, 93.29 -84.01" stroke="#000000" stroke-width="1" fill="none"></path></g></g><mask></mask><g stroke-linecap="round"><g transform="translate(128.3314223720202 420.57249657162174) rotate(0 41.60496444396334 39.35413277490443)"><path d="M-1.09 0.18 C13.01 13.58, 69.93 66.4, 84.3 79.49 M0.53 -0.78 C14.51 12.33, 69.31 64.1, 83.36 77.52" stroke="#000000" stroke-width="1" fill="none"></path></g></g><mask></mask><g stroke-linecap="round"><g transform="translate(191.74057491761926 572.4194285075537) rotate(0 365.8333587646483 180.83335876464844)"><path d="M0 0 C39.72 36.67, 116.39 159.72, 238.33 220 C360.28 280.28, 649.44 338.06, 731.67 361.67 M0 0 C39.72 36.67, 116.39 159.72, 238.33 220 C360.28 280.28, 649.44 338.06, 731.67 361.67" stroke="#343a40" stroke-width="4" fill="none"></path></g><g transform="translate(191.74057491761926 572.4194285075537) rotate(0 365.8333587646483 180.83335876464844)"><path d="M701.84 364.86 C710.98 363.88, 720.13 362.9, 731.67 361.67 M701.84 364.86 C713.4 363.62, 724.97 362.38, 731.67 361.67" stroke="#343a40" stroke-width="4" fill="none"></path></g><g transform="translate(191.74057491761926 572.4194285075537) rotate(0 365.8333587646483 180.83335876464844)"><path d="M706.76 344.94 C714.4 350.07, 722.03 355.2, 731.67 361.67 M706.76 344.94 C716.42 351.43, 726.08 357.91, 731.67 361.67" stroke="#343a40" stroke-width="4" fill="none"></path></g></g><mask></mask><g transform="translate(315.3746233795333 774.0861460368506) rotate(0 156.36595153808594 22.5)"><text x="156.36595153808594" y="0" font-family="Virgil, Segoe UI Emoji" font-size="36px" fill="#343a40" text-anchor="middle" style="white-space: pre;" direction="ltr" dominant-baseline="text-before-edge">5. withdraw funds</text></g><g stroke-linecap="round"><g transform="translate(121.74057491761926 630.7527109782568) rotate(0 410.0000762939452 165.7307913839286)"><path d="M0 0 C46.94 51.11, 145 254.44, 281.67 306.67 C418.33 358.89, 730.28 312.22, 820 313.33 M0 0 C46.94 51.11, 145 254.44, 281.67 306.67 C418.33 358.89, 730.28 312.22, 820 313.33" stroke="#343a40" stroke-width="4" fill="none"></path></g><g transform="translate(121.74057491761926 630.7527109782568) rotate(0 410.0000762939452 165.7307913839286)"><path d="M792.49 325.29 C798.37 322.73, 804.26 320.17, 820 313.33 M792.49 325.29 C798.05 322.88, 803.61 320.46, 820 313.33" stroke="#343a40" stroke-width="4" fill="none"></path></g><g transform="translate(121.74057491761926 630.7527109782568) rotate(0 410.0000762939452 165.7307913839286)"><path d="M791.24 304.81 C797.39 306.63, 803.55 308.46, 820 313.33 M791.24 304.81 C797.05 306.53, 802.87 308.26, 820 313.33" stroke="#343a40" stroke-width="4" fill="none"></path></g></g><mask></mask><g transform="translate(245.11792477113488 960.7528635661474) rotate(0 169.9559326171875 22.49999999999818)"><text x="169.9559326171875" y="0" font-family="Virgil, Segoe UI Emoji" font-size="36px" fill="#343a40" text-anchor="middle" style="white-space: pre;" direction="ltr" dominant-baseline="text-before-edge">6. transfer lottery</text></g><g stroke-linecap="round"><g transform="translate(1126.7407275055093 434.0859934489599) rotate(0 -2.5 135.83335876464844)"><path d="M0 0 C-0.83 45.28, -4.17 226.39, -5 271.67 M0 0 C-0.83 45.28, -4.17 226.39, -5 271.67" stroke="#343a40" stroke-width="4" fill="none"></path></g><g transform="translate(1126.7407275055093 434.0859934489599) rotate(0 -2.5 135.83335876464844)"><path d="M-14.74 243.29 C-12.77 249.03, -10.8 254.77, -5 271.67 M-14.74 243.29 C-10.93 254.39, -7.12 265.49, -5 271.67" stroke="#343a40" stroke-width="4" fill="none"></path></g><g transform="translate(1126.7407275055093 434.0859934489599) rotate(0 -2.5 135.83335876464844)"><path d="M5.78 243.67 C3.6 249.33, 1.42 255, -5 271.67 M5.78 243.67 C1.56 254.62, -2.65 265.57, -5 271.67" stroke="#343a40" stroke-width="4" fill="none"></path></g></g><mask></mask><g transform="translate(962.4327669952554 574.0859934489599) rotate(0 124.3079605102539 22.5)"><text x="124.3079605102539" y="0" font-family="Virgil, Segoe UI Emoji" font-size="36px" fill="#343a40" text-anchor="middle" style="white-space: pre;" direction="ltr" dominant-baseline="text-before-edge">2.1 Buy ticket</text></g><g stroke-linecap="round"><g transform="translate(251.74072750550977 347.41927591966305) rotate(0 344.9999999999998 234.16671752929688)"><path d="M0 0 C65.28 33.06, 276.67 120.28, 391.67 198.33 C506.67 276.39, 640.28 423.33, 690 468.33 M0 0 C65.28 33.06, 276.67 120.28, 391.67 198.33 C506.67 276.39, 640.28 423.33, 690 468.33" stroke="#343a40" stroke-width="4" fill="none"></path></g><g transform="translate(251.74072750550977 347.41927591966305) rotate(0 344.9999999999998 234.16671752929688)"><path d="M662.69 455.91 C668.9 458.74, 675.11 461.56, 690 468.33 M662.69 455.91 C668.91 458.74, 675.12 461.57, 690 468.33" stroke="#343a40" stroke-width="4" fill="none"></path></g><g transform="translate(251.74072750550977 347.41927591966305) rotate(0 344.9999999999998 234.16671752929688)"><path d="M677.06 441.27 C680 447.42, 682.94 453.57, 690 468.33 M677.06 441.27 C680.01 447.43, 682.95 453.58, 690 468.33" stroke="#343a40" stroke-width="4" fill="none"></path></g></g><mask></mask><g transform="translate(391.7961169098064 424.26261603913736) rotate(0 158.27789306640625 29.82330111587362)"><text x="158.27789306640625" y="0" font-family="Virgil, Segoe UI Emoji" font-size="47.717281785398974px" fill="#343a40" text-anchor="middle" style="white-space: pre;" direction="ltr" dominant-baseline="text-before-edge">2. Buy ticket</text></g></svg>