<svg version="1.1" xmlns="http://www.w3.org/2000/svg" viewBox="0 0 1957.9676550945558 933.1719868979162" width="1957.9676550945558" height="933.1719868979162">
  <!-- svg-source:excalidraw -->
  
  <defs>
    <style class="style-fonts">
      @font-face {
        font-family: "Virgil";
        src: url("https://excalidraw.com/Virgil.woff2");
      }
      @font-face {
        font-family: "Cascadia";
        src: url("https://excalidraw.com/Cascadia.woff2");
      }
    </style>
    
  </defs>
  <rect x="0" y="0" width="1957.9676550945558" height="933.1719868979162" fill="#ffffff"></rect><g transform="translate(195.77084157231525 769.9931674911495) rotate(0 130.280029296875 45.925943929754794)"><text x="0" y="0" font-family="Virgil, Segoe UI Emoji" font-size="73.48151028760871px" fill="#000000" text-anchor="start" style="white-space: pre;" direction="ltr" dominant-baseline="text-before-edge">Smallet</text></g><g stroke-linecap="round" transform="translate(348.4714918487034 522.875423995396) rotate(0 36.28212697087912 31.746861099520174)"><path d="M7.15 12.84 C7.15 12.84, 7.15 12.84, 7.15 12.84 M7.15 12.84 C7.15 12.84, 7.15 12.84, 7.15 12.84 M0.72 32.43 C7.45 24.68, 14.18 16.94, 26.3 2.99 M0.72 32.43 C8.66 23.29, 16.6 14.16, 26.3 2.99 M2.82 42.2 C15.07 28.11, 27.32 14.02, 38.25 1.45 M2.82 42.2 C12.96 30.54, 23.09 18.88, 38.25 1.45 M7.55 48.96 C22.77 31.45, 38 13.93, 48.22 2.17 M7.55 48.96 C16.02 39.22, 24.49 29.47, 48.22 2.17 M12.27 55.72 C27.09 38.67, 41.91 21.62, 55.57 5.91 M12.27 55.72 C25.13 40.92, 37.99 26.13, 55.57 5.91 M18.31 60.97 C33.12 43.92, 47.94 26.88, 62.92 9.65 M18.31 60.97 C28.93 48.74, 39.56 36.52, 62.92 9.65 M26.97 63.2 C36.53 52.2, 46.08 41.21, 68.3 15.65 M26.97 63.2 C35.96 52.86, 44.94 42.52, 68.3 15.65 M36.94 63.92 C49.25 49.76, 61.56 35.6, 72.37 23.16 M36.94 63.92 C45.96 53.54, 54.98 43.17, 72.37 23.16 M48.23 63.13 C56.74 53.34, 65.25 43.55, 74.47 32.94 M48.23 63.13 C54.48 55.93, 60.74 48.74, 74.47 32.94 M10.95 54.47 C10.95 54.47, 10.95 54.47, 10.95 54.47 M10.95 54.47 C10.95 54.47, 10.95 54.47, 10.95 54.47 M31.29 61.56 C21.94 53.43, 12.59 45.3, 1.1 35.31 M31.29 61.56 C23.76 55.02, 16.24 48.47, 1.1 35.31 M43.33 61.42 C29.78 49.64, 16.22 37.86, 1.82 25.34 M43.33 61.42 C30.61 50.37, 17.9 39.32, 1.82 25.34 M53.11 59.32 C35.83 44.3, 18.55 29.28, 4.05 16.68 M53.11 59.32 C36.51 44.9, 19.91 30.47, 4.05 16.68 M59.87 54.6 C42.42 39.43, 24.97 24.26, 9.3 10.64 M59.87 54.6 C40.01 37.34, 20.15 20.08, 9.3 10.64 M66.62 49.87 C46.45 32.33, 26.27 14.79, 15.3 5.26 M66.62 49.87 C51.65 36.85, 36.67 23.84, 15.3 5.26 M71.12 43.18 C54.93 29.1, 38.73 15.03, 22.06 0.53 M71.12 43.18 C53.1 27.51, 35.08 11.85, 22.06 0.53 M74.1 35.17 C63.52 25.97, 52.94 16.77, 31.84 -1.57 M74.1 35.17 C61.65 24.35, 49.21 13.53, 31.84 -1.57 M71.05 21.92 C63.44 15.3, 55.83 8.69, 47.65 1.58 M71.05 21.92 C65.74 17.31, 60.44 12.69, 47.65 1.58" stroke="#ced4da" stroke-width="1" fill="none"></path><path d="M72.56 31.75 C72.56 33.4, 72.41 35.08, 72.12 36.71 C71.82 38.35, 71.37 39.98, 70.79 41.56 C70.2 43.13, 69.47 44.68, 68.61 46.16 C67.75 47.63, 66.75 49.07, 65.63 50.41 C64.52 51.75, 63.28 53.02, 61.94 54.2 C60.6 55.37, 59.14 56.46, 57.61 57.43 C56.08 58.4, 54.44 59.28, 52.75 60.03 C51.07 60.79, 49.29 61.43, 47.49 61.94 C45.69 62.45, 43.83 62.84, 41.96 63.1 C40.09 63.36, 38.17 63.49, 36.28 63.49 C34.39 63.49, 32.47 63.36, 30.61 63.1 C28.74 62.84, 26.87 62.45, 25.07 61.94 C23.27 61.43, 21.5 60.79, 19.81 60.03 C18.12 59.28, 16.49 58.4, 14.96 57.43 C13.43 56.46, 11.96 55.37, 10.63 54.2 C9.29 53.02, 8.04 51.75, 6.93 50.41 C5.82 49.07, 4.81 47.63, 3.95 46.16 C3.1 44.68, 2.36 43.13, 1.78 41.56 C1.19 39.98, 0.74 38.35, 0.45 36.71 C0.15 35.08, 0 33.4, 0 31.75 C0 30.09, 0.15 28.42, 0.45 26.78 C0.74 25.15, 1.19 23.51, 1.78 21.94 C2.36 20.36, 3.1 18.81, 3.95 17.33 C4.81 15.86, 5.82 14.43, 6.93 13.09 C8.04 11.75, 9.29 10.47, 10.63 9.3 C11.96 8.13, 13.43 7.04, 14.96 6.06 C16.49 5.09, 18.12 4.21, 19.81 3.46 C21.5 2.71, 23.27 2.07, 25.07 1.55 C26.87 1.04, 28.74 0.65, 30.61 0.39 C32.47 0.13, 34.39 0, 36.28 0 C38.17 0, 40.09 0.13, 41.96 0.39 C43.83 0.65, 45.69 1.04, 47.49 1.55 C49.29 2.07, 51.07 2.71, 52.75 3.46 C54.44 4.21, 56.08 5.09, 57.61 6.06 C59.14 7.04, 60.6 8.13, 61.94 9.3 C63.28 10.47, 64.52 11.75, 65.63 13.09 C66.75 14.43, 67.75 15.86, 68.61 17.33 C69.47 18.81, 70.2 20.36, 70.79 21.94 C71.37 23.51, 71.82 25.15, 72.12 26.78 C72.41 28.42, 72.49 30.92, 72.56 31.75 C72.64 32.57, 72.64 30.92, 72.56 31.75" stroke="#000000" stroke-width="2" fill="none"></path></g><g stroke-linecap="round" transform="translate(189.81141212754818 525.0176590624724) rotate(0 36.28212697087912 31.746861099520174)"><path d="M7.15 12.84 C7.15 12.84, 7.15 12.84, 7.15 12.84 M7.15 12.84 C7.15 12.84, 7.15 12.84, 7.15 12.84 M0.72 32.43 C10.91 20.7, 21.11 8.97, 26.3 2.99 M0.72 32.43 C10.18 21.54, 19.65 10.65, 26.3 2.99 M2.82 42.2 C11.36 32.38, 19.89 22.56, 38.25 1.45 M2.82 42.2 C10.7 33.14, 18.58 24.07, 38.25 1.45 M7.55 48.96 C19.74 34.93, 31.94 20.9, 48.22 2.17 M7.55 48.96 C16.62 38.52, 25.69 28.09, 48.22 2.17 M12.27 55.72 C24.11 42.09, 35.96 28.47, 55.57 5.91 M12.27 55.72 C27.47 38.23, 42.67 20.74, 55.57 5.91 M18.31 60.97 C31.53 45.76, 44.75 30.55, 62.92 9.65 M18.31 60.97 C34.12 42.77, 49.94 24.58, 62.92 9.65 M26.97 63.2 C41.62 46.34, 56.27 29.49, 68.3 15.65 M26.97 63.2 C38.72 49.68, 50.47 36.17, 68.3 15.65 M36.94 63.92 C44.07 55.71, 51.2 47.51, 72.37 23.16 M36.94 63.92 C48.59 50.52, 60.24 37.12, 72.37 23.16 M48.23 63.13 C58.02 51.87, 67.8 40.61, 74.47 32.94 M48.23 63.13 C57.37 52.62, 66.5 42.11, 74.47 32.94 M10.95 54.47 C10.95 54.47, 10.95 54.47, 10.95 54.47 M10.95 54.47 C10.95 54.47, 10.95 54.47, 10.95 54.47 M31.29 61.56 C20.9 52.52, 10.51 43.49, 1.1 35.31 M31.29 61.56 C24.73 55.85, 18.16 50.15, 1.1 35.31 M43.33 61.42 C32.06 51.62, 20.78 41.82, 1.82 25.34 M43.33 61.42 C28.56 48.58, 13.78 35.74, 1.82 25.34 M53.11 59.32 C37.87 46.08, 22.63 32.83, 4.05 16.68 M53.11 59.32 C42.55 50.14, 31.99 40.96, 4.05 16.68 M59.87 54.6 C47.41 43.77, 34.95 32.94, 9.3 10.64 M59.87 54.6 C43.17 40.09, 26.48 25.58, 9.3 10.64 M66.62 49.87 C54.27 39.13, 41.91 28.39, 15.3 5.26 M66.62 49.87 C55.68 40.36, 44.74 30.85, 15.3 5.26 M71.12 43.18 C54.05 28.34, 36.98 13.5, 22.06 0.53 M71.12 43.18 C52 26.56, 32.89 9.95, 22.06 0.53 M74.1 35.17 C60.16 23.05, 46.22 10.93, 31.84 -1.57 M74.1 35.17 C60.1 23, 46.1 10.83, 31.84 -1.57 M71.05 21.92 C62.34 14.35, 53.63 6.77, 47.65 1.58 M71.05 21.92 C64.24 16, 57.43 10.08, 47.65 1.58" stroke="#ced4da" stroke-width="1" fill="none"></path><path d="M72.56 31.75 C72.56 33.4, 72.41 35.08, 72.12 36.71 C71.82 38.35, 71.37 39.98, 70.79 41.56 C70.2 43.13, 69.47 44.68, 68.61 46.16 C67.75 47.63, 66.75 49.07, 65.63 50.41 C64.52 51.75, 63.28 53.02, 61.94 54.2 C60.6 55.37, 59.14 56.46, 57.61 57.43 C56.08 58.4, 54.44 59.28, 52.75 60.03 C51.07 60.79, 49.29 61.43, 47.49 61.94 C45.69 62.45, 43.83 62.84, 41.96 63.1 C40.09 63.36, 38.17 63.49, 36.28 63.49 C34.39 63.49, 32.47 63.36, 30.61 63.1 C28.74 62.84, 26.87 62.45, 25.07 61.94 C23.27 61.43, 21.5 60.79, 19.81 60.03 C18.12 59.28, 16.49 58.4, 14.96 57.43 C13.43 56.46, 11.96 55.37, 10.63 54.2 C9.29 53.02, 8.04 51.75, 6.93 50.41 C5.82 49.07, 4.81 47.63, 3.95 46.16 C3.1 44.68, 2.36 43.13, 1.78 41.56 C1.19 39.98, 0.74 38.35, 0.45 36.71 C0.15 35.08, 0 33.4, 0 31.75 C0 30.09, 0.15 28.42, 0.45 26.78 C0.74 25.15, 1.19 23.51, 1.78 21.94 C2.36 20.36, 3.1 18.81, 3.95 17.33 C4.81 15.86, 5.82 14.43, 6.93 13.09 C8.04 11.75, 9.29 10.47, 10.63 9.3 C11.96 8.13, 13.43 7.04, 14.96 6.06 C16.49 5.09, 18.12 4.21, 19.81 3.46 C21.5 2.71, 23.27 2.07, 25.07 1.55 C26.87 1.04, 28.74 0.65, 30.61 0.39 C32.47 0.13, 34.39 0, 36.28 0 C38.17 0, 40.09 0.13, 41.96 0.39 C43.83 0.65, 45.69 1.04, 47.49 1.55 C49.29 2.07, 51.07 2.71, 52.75 3.46 C54.44 4.21, 56.08 5.09, 57.61 6.06 C59.14 7.04, 60.6 8.13, 61.94 9.3 C63.28 10.47, 64.52 11.75, 65.63 13.09 C66.75 14.43, 67.75 15.86, 68.61 17.33 C69.47 18.81, 70.2 20.36, 70.79 21.94 C71.37 23.51, 71.82 25.15, 72.12 26.78 C72.41 28.42, 72.49 30.92, 72.56 31.75 C72.64 32.57, 72.64 30.92, 72.56 31.75" stroke="#000000" stroke-width="2" fill="none"></path></g><g stroke-linecap="round"><g transform="translate(228.21218809694977 741.5347345032496) rotate(0 80.49326257184275 -67.94853048076038)" fill-rule="evenodd"><path d="M28.79 -107.48 C28.79 -107.48, 28.79 -107.48, 28.79 -107.48 M28.79 -107.48 C28.79 -107.48, 28.79 -107.48, 28.79 -107.48 M15.14 -79.59 C32.37 -99.4, 49.59 -119.22, 59.75 -130.91 M15.14 -79.59 C26.68 -92.86, 38.21 -106.13, 59.75 -130.91 M13.31 -65.28 C34.75 -89.95, 56.19 -114.62, 74.98 -136.23 M13.31 -65.28 C33 -87.94, 52.7 -110.6, 74.98 -136.23 M10.82 -50.22 C26.26 -67.99, 41.7 -85.76, 83.64 -134 M10.82 -50.22 C34.7 -77.7, 58.58 -105.17, 83.64 -134 M10.29 -37.43 C38.99 -70.45, 67.7 -103.46, 92.3 -131.77 M10.29 -37.43 C29.95 -60.05, 49.62 -82.66, 92.3 -131.77 M9.11 -23.88 C44.99 -65.15, 80.88 -106.43, 99.65 -128.03 M9.11 -23.88 C36.33 -55.19, 63.55 -86.5, 99.65 -128.03 M7.28 -9.57 C43.75 -51.53, 80.22 -93.49, 107 -124.29 M7.28 -9.57 C35.34 -41.86, 63.41 -74.14, 107 -124.29 M5.44 4.73 C34.5 -28.69, 63.55 -62.11, 113.69 -119.79 M5.44 4.73 C28.41 -21.69, 51.39 -48.12, 113.69 -119.79 M16.07 4.7 C39.43 -22.17, 62.79 -49.05, 119.73 -114.55 M16.07 4.7 C38.54 -21.14, 61 -46.98, 119.73 -114.55 M26.7 4.66 C54.51 -27.32, 82.32 -59.31, 124.46 -107.79 M26.7 4.66 C50.82 -23.08, 74.94 -50.82, 124.46 -107.79 M36.68 5.38 C67.96 -30.6, 99.24 -66.59, 129.84 -101.79 M36.68 5.38 C66.15 -28.52, 95.63 -62.43, 129.84 -101.79 M47.31 5.35 C76.08 -27.75, 104.86 -60.85, 135.22 -95.78 M47.31 5.35 C68.11 -18.58, 88.92 -42.52, 135.22 -95.78 M57.94 5.31 C88.9 -30.3, 119.85 -65.91, 139.29 -88.27 M57.94 5.31 C78.25 -18.05, 98.56 -41.41, 139.29 -88.27 M68.57 5.28 C83.99 -12.46, 99.41 -30.2, 143.36 -80.76 M68.57 5.28 C95.72 -25.95, 122.86 -57.18, 143.36 -80.76 M81.17 2.98 C96.01 -14.1, 110.86 -31.18, 148.74 -74.75 M81.17 2.98 C107.13 -26.88, 133.09 -56.75, 148.74 -74.75 M91.8 2.95 C113.34 -21.84, 134.89 -46.63, 152.15 -66.49 M91.8 2.95 C107.19 -14.76, 122.59 -32.47, 152.15 -66.49 M103.74 1.4 C124.21 -22.14, 144.67 -45.69, 156.22 -58.97 M103.74 1.4 C118.75 -15.87, 133.77 -33.14, 156.22 -58.97 M115.02 0.61 C130.07 -16.69, 145.11 -33.99, 158.98 -49.95 M115.02 0.61 C127.8 -14.08, 140.58 -28.78, 158.98 -49.95 M125.66 0.58 C132.77 -7.6, 139.88 -15.78, 160.43 -39.42 M125.66 0.58 C133.3 -8.21, 140.94 -17, 160.43 -39.42 M138.25 -1.72 C146.54 -11.25, 154.82 -20.77, 161.87 -28.89 M138.25 -1.72 C145.25 -9.76, 152.24 -17.81, 161.87 -28.89 M0 0 C0 0, 0 0, 0 0 M0 0 C0 0, 0 0, 0 0 M12.04 -0.13 C8.89 -2.87, 5.74 -5.61, 1.47 -9.32 M12.04 -0.13 C9.44 -2.39, 6.84 -4.65, 1.47 -9.32 M24.84 0.39 C18 -5.55, 11.16 -11.5, 2.2 -19.29 M24.84 0.39 C17.29 -6.17, 9.75 -12.73, 2.2 -19.29 M36.88 0.26 C26.04 -9.17, 15.2 -18.59, 3.67 -28.61 M36.88 0.26 C24.81 -10.24, 12.74 -20.73, 3.67 -28.61 M49.67 0.78 C31.82 -14.74, 13.97 -30.25, 4.39 -38.58 M49.67 0.78 C39.07 -8.43, 28.48 -17.65, 4.39 -38.58 M61.71 0.65 C45.4 -13.54, 29.08 -27.72, 8.13 -45.93 M61.71 0.65 C49.92 -9.61, 38.12 -19.86, 8.13 -45.93 M74.51 1.17 C51.85 -18.53, 29.19 -38.23, 9.6 -55.25 M74.51 1.17 C60.93 -10.64, 47.34 -22.45, 9.6 -55.25 M82.02 -2.9 C58.79 -23.1, 35.55 -43.3, 11.08 -64.57 M82.02 -2.9 C65.28 -17.45, 48.55 -32, 11.08 -64.57 M94.06 -3.03 C72.84 -21.48, 51.62 -39.93, 13.31 -73.23 M94.06 -3.03 C68.58 -25.19, 43.09 -47.34, 13.31 -73.23 M105.35 -3.82 C85.68 -20.92, 66 -38.03, 14.78 -82.55 M105.35 -3.82 C71 -33.68, 36.64 -63.55, 14.78 -82.55 M116.64 -4.61 C96.09 -22.47, 75.54 -40.33, 17.77 -90.56 M116.64 -4.61 C86.18 -31.09, 55.72 -57.57, 17.77 -90.56 M127.92 -5.4 C104.46 -25.79, 81 -46.19, 22.26 -97.25 M127.92 -5.4 C99.69 -29.94, 71.47 -54.48, 22.26 -97.25 M137.7 -7.5 C100.72 -39.65, 63.74 -71.79, 26.76 -103.94 M137.7 -7.5 C99.93 -40.33, 62.17 -73.16, 26.76 -103.94 M149.74 -7.64 C112.2 -40.27, 74.65 -72.91, 31.25 -110.64 M149.74 -7.64 C118.37 -34.91, 87 -62.18, 31.25 -110.64 M156.5 -12.36 C112.97 -50.2, 69.45 -88.03, 37.25 -116.02 M156.5 -12.36 C124.95 -39.78, 93.41 -67.21, 37.25 -116.02 M160.99 -19.05 C125.07 -50.28, 89.15 -81.51, 42.5 -122.06 M160.99 -19.05 C115.27 -58.8, 69.55 -98.54, 42.5 -122.06 M161.71 -29.03 C127.17 -59.06, 92.62 -89.09, 48.5 -127.44 M161.71 -29.03 C124.24 -61.6, 86.77 -94.17, 48.5 -127.44 M160.17 -40.97 C127.75 -69.15, 95.33 -97.33, 55.26 -132.16 M160.17 -40.97 C118.97 -76.78, 77.78 -112.59, 55.26 -132.16 M156.36 -54.88 C125.23 -81.94, 94.11 -108.99, 62.77 -136.23 M156.36 -54.88 C129.35 -78.36, 102.34 -101.84, 62.77 -136.23 M148.02 -72.73 C126.64 -91.31, 105.27 -109.9, 74.06 -137.02 M148.02 -72.73 C126.15 -91.74, 104.27 -110.76, 74.06 -137.02 M137.42 -92.54 C122.57 -105.45, 107.72 -118.36, 88.37 -135.19 M137.42 -92.54 C123.45 -104.69, 109.48 -116.83, 88.37 -135.19" stroke="#ced4da" stroke-width="1" fill="none"></path><path d="M0 0 C2.87 -15.11, 4.92 -67.84, 17.2 -90.63 C29.49 -113.43, 54.89 -135.13, 73.73 -136.77 C92.57 -138.42, 116.94 -121.75, 130.25 -100.52 C143.56 -79.29, 175.31 -26.16, 153.6 -9.41 C131.89 7.34, 25.6 -1.57, 0 0 M0 0 C2.87 -15.11, 4.92 -67.84, 17.2 -90.63 C29.49 -113.43, 54.89 -135.13, 73.73 -136.77 C92.57 -138.42, 116.94 -121.75, 130.25 -100.52 C143.56 -79.29, 175.31 -26.16, 153.6 -9.41 C131.89 7.34, 25.6 -1.57, 0 0" stroke="#000000" stroke-width="2" fill="none"></path></g></g><mask></mask><g stroke-linecap="round" transform="translate(266.73899273204296 533.6757077250004) rotate(0 39.32119265005613 34.40604356879885)"><path d="M7.36 14.35 C7.36 14.35, 7.36 14.35, 7.36 14.35 M7.36 14.35 C7.36 14.35, 7.36 14.35, 7.36 14.35 M0.28 34.69 C10.69 22.72, 21.1 10.75, 28.49 2.24 M0.28 34.69 C11.34 21.97, 22.4 9.25, 28.49 2.24 M3.69 42.96 C16.44 28.29, 29.2 13.62, 40.43 0.7 M3.69 42.96 C14.32 30.74, 24.94 18.52, 40.43 0.7 M6.45 51.98 C18.67 37.92, 30.9 23.86, 49.09 2.93 M6.45 51.98 C21.81 34.31, 37.17 16.64, 49.09 2.93 M11.83 57.99 C26.64 40.95, 41.45 23.92, 58.41 4.4 M11.83 57.99 C27.24 40.27, 42.64 22.55, 58.41 4.4 M17.87 63.23 C27.36 52.32, 36.84 41.41, 65.11 8.9 M17.87 63.23 C27.37 52.31, 36.87 41.38, 65.11 8.9 M24.56 67.73 C40.44 49.47, 56.31 31.2, 71.14 14.14 M24.56 67.73 C42.32 47.3, 60.08 26.88, 71.14 14.14 M33.88 69.2 C46.86 54.27, 59.84 39.34, 76.53 20.15 M33.88 69.2 C47.72 53.29, 61.55 37.37, 76.53 20.15 M42.54 71.43 C51 61.7, 59.47 51.97, 78.63 29.92 M42.54 71.43 C52.01 60.55, 61.47 49.66, 78.63 29.92 M57.77 66.12 C65.7 56.98, 73.64 47.85, 79.42 41.21 M57.77 66.12 C62.93 60.17, 68.09 54.23, 79.42 41.21 M11.35 58.59 C11.35 58.59, 11.35 58.59, 11.35 58.59 M11.35 58.59 C11.35 58.59, 11.35 58.59, 11.35 58.59 M33.95 67.64 C26.19 60.89, 18.42 54.14, 0.75 38.77 M33.95 67.64 C25.65 60.42, 17.34 53.2, 0.75 38.77 M45.99 67.51 C30.52 54.05, 15.05 40.6, 0.71 28.14 M45.99 67.51 C30.39 53.94, 14.79 40.38, 0.71 28.14 M54.26 64.09 C37.9 49.87, 21.54 35.65, 4.45 20.79 M54.26 64.09 C36.11 48.32, 17.97 32.54, 4.45 20.79 M63.28 61.33 C45.36 45.75, 27.43 30.17, 8.19 13.44 M63.28 61.33 C50.56 50.27, 37.83 39.21, 8.19 13.44 M69.29 55.95 C49.76 38.98, 30.23 22, 13.44 7.4 M69.29 55.95 C47.8 37.27, 26.31 18.6, 13.44 7.4 M74.54 49.92 C57.14 34.79, 39.74 19.67, 20.2 2.68 M74.54 49.92 C57.22 34.86, 39.9 19.81, 20.2 2.68 M78.27 42.57 C59.97 26.65, 41.67 10.74, 29.22 -0.08 M78.27 42.57 C67.81 33.47, 57.34 24.37, 29.22 -0.08 M79.75 33.25 C68.86 23.78, 57.96 14.31, 40.5 -0.87 M79.75 33.25 C69.1 23.99, 58.46 14.74, 40.5 -0.87 M74.43 18.03 C68.6 12.96, 62.77 7.89, 57.83 3.59 M74.43 18.03 C68.61 12.96, 62.79 7.9, 57.83 3.59" stroke="#ced4da" stroke-width="1" fill="none"></path><path d="M78.64 34.41 C78.64 36.2, 78.48 38.02, 78.16 39.79 C77.84 41.56, 77.35 43.33, 76.72 45.04 C76.08 46.74, 75.29 48.43, 74.36 50.03 C73.43 51.62, 72.34 53.18, 71.13 54.63 C69.93 56.08, 68.58 57.47, 67.13 58.73 C65.68 60, 64.09 61.19, 62.43 62.24 C60.77 63.3, 59 64.25, 57.17 65.06 C55.35 65.88, 53.42 66.57, 51.47 67.13 C49.52 67.68, 47.5 68.11, 45.47 68.39 C43.45 68.67, 41.37 68.81, 39.32 68.81 C37.27 68.81, 35.2 68.67, 33.17 68.39 C31.14 68.11, 29.12 67.68, 27.17 67.13 C25.22 66.57, 23.3 65.88, 21.47 65.06 C19.64 64.25, 17.87 63.3, 16.21 62.24 C14.55 61.19, 12.97 60, 11.52 58.73 C10.07 57.47, 8.71 56.08, 7.51 54.63 C6.3 53.18, 5.22 51.62, 4.29 50.03 C3.35 48.43, 2.56 46.74, 1.92 45.04 C1.29 43.33, 0.8 41.56, 0.48 39.79 C0.16 38.02, 0 36.2, 0 34.41 C0 32.61, 0.16 30.8, 0.48 29.02 C0.8 27.25, 1.29 25.48, 1.92 23.77 C2.56 22.07, 3.35 20.38, 4.29 18.79 C5.22 17.19, 6.3 15.63, 7.51 14.18 C8.71 12.73, 10.07 11.35, 11.52 10.08 C12.97 8.81, 14.55 7.63, 16.21 6.57 C17.87 5.52, 19.64 4.56, 21.47 3.75 C23.3 2.94, 25.22 2.24, 27.17 1.68 C29.12 1.13, 31.14 0.7, 33.17 0.42 C35.2 0.14, 37.27 0, 39.32 0 C41.37 0, 43.45 0.14, 45.47 0.42 C47.5 0.7, 49.52 1.13, 51.47 1.68 C53.42 2.24, 55.35 2.94, 57.17 3.75 C59 4.56, 60.77 5.52, 62.43 6.57 C64.09 7.63, 65.68 8.81, 67.13 10.08 C68.58 11.35, 69.93 12.73, 71.13 14.18 C72.34 15.63, 73.43 17.19, 74.36 18.79 C75.29 20.38, 76.08 22.07, 76.72 23.77 C77.35 25.48, 77.84 27.25, 78.16 29.02 C78.48 30.8, 78.56 33.51, 78.64 34.41 C78.72 35.3, 78.72 33.51, 78.64 34.41" stroke="#000000" stroke-width="2" fill="none"></path></g><g stroke-linecap="round"><g transform="translate(335.3163959016381 617.8320483517964) rotate(0 61.425614201138515 36.45106898961785)" fill-rule="evenodd"><path d="M0 0 C0 0, 0 0, 0 0 M0 0 C0 0, 0 0, 0 0 M6.04 5.25 C15.52 -5.66, 24.99 -16.56, 36.22 -29.47 M6.04 5.25 C12.84 -2.57, 19.64 -10.4, 36.22 -29.47 M12.08 10.5 C23.87 -3.07, 35.66 -16.64, 48.81 -31.77 M12.08 10.5 C19.78 1.64, 27.48 -7.22, 48.81 -31.77 M18.11 15.75 C26.92 5.62, 35.72 -4.51, 59.44 -31.8 M18.11 15.75 C33.64 -2.12, 49.17 -19.98, 59.44 -31.8 M23.49 21.75 C37.37 5.79, 51.25 -10.18, 67.45 -28.82 M23.49 21.75 C38.85 4.08, 54.21 -13.58, 67.45 -28.82 M27.56 29.26 C45.7 8.4, 63.83 -12.46, 76.77 -27.34 M27.56 29.26 C42.17 12.46, 56.77 -4.33, 76.77 -27.34 M32.29 36.02 C45.09 21.29, 57.89 6.57, 85.43 -25.11 M32.29 36.02 C51.37 14.07, 70.45 -7.88, 85.43 -25.11 M35.7 44.29 C55.08 21.99, 74.46 -0.3, 91.47 -19.86 M35.7 44.29 C57.26 19.49, 78.82 -5.31, 91.47 -19.86 M39.77 51.8 C60.09 28.42, 80.41 5.05, 95.54 -12.35 M39.77 51.8 C60.6 27.84, 81.42 3.89, 95.54 -12.35 M43.84 59.31 C57.44 43.67, 71.04 28.03, 99.61 -4.84 M43.84 59.31 C65.68 34.19, 87.53 9.06, 99.61 -4.84 M47.26 67.58 C65.7 46.36, 84.14 25.15, 103.02 3.43 M47.26 67.58 C59.85 53.09, 72.44 38.6, 103.02 3.43 M50.67 75.85 C72.47 50.77, 94.27 25.69, 108.4 9.43 M50.67 75.85 C68.4 55.45, 86.13 35.05, 108.4 9.43 M54.74 83.36 C69.46 66.43, 84.17 49.5, 111.16 18.45 M54.74 83.36 C74.37 60.77, 94.01 38.19, 111.16 18.45 M54.87 95.4 C78.5 68.22, 102.12 41.05, 114.57 26.72 M54.87 95.4 C71.37 76.42, 87.87 57.44, 114.57 26.72 M56.97 105.18 C72.54 87.27, 88.1 69.36, 118.64 34.23 M56.97 105.18 C73.63 86.02, 90.28 66.86, 118.64 34.23 M64.32 108.92 C85.52 84.53, 106.73 60.14, 121.4 43.26 M64.32 108.92 C80.94 89.8, 97.56 70.68, 121.4 43.26 M74.95 108.88 C88.16 93.69, 101.36 78.5, 122.19 54.54 M74.95 108.88 C90.09 91.46, 105.24 74.04, 122.19 54.54 M84.93 109.6 C96.93 95.8, 108.92 82, 124.29 64.32 M84.93 109.6 C96.42 96.38, 107.91 83.16, 124.29 64.32 M101.46 102.77 C108.76 94.37, 116.07 85.97, 126.39 74.1 M101.46 102.77 C109.6 93.41, 117.74 84.04, 126.39 74.1 M54.11 102.37 C54.11 102.37, 54.11 102.37, 54.11 102.37 M54.11 102.37 C54.11 102.37, 54.11 102.37, 54.11 102.37 M63.89 100.27 C61.47 98.17, 59.06 96.08, 56.34 93.71 M63.89 100.27 C61.52 98.21, 59.15 96.16, 56.34 93.71 M81.21 104.73 C73.48 98.01, 65.75 91.29, 53.29 80.46 M81.21 104.73 C71.31 96.12, 61.4 87.51, 53.29 80.46 M90.99 102.63 C77.52 90.93, 64.06 79.22, 54.01 70.48 M90.99 102.63 C83.39 96.03, 75.79 89.42, 54.01 70.48 M101.52 101.18 C87.48 88.98, 73.43 76.77, 44.92 51.98 M101.52 101.18 C82.3 84.48, 63.08 67.77, 44.92 51.98 M109.79 97.77 C86.22 77.29, 62.65 56.8, 32.81 30.85 M109.79 97.77 C84.81 76.06, 59.83 54.34, 32.81 30.85 M117.3 93.7 C89.87 69.86, 62.44 46.01, 4.09 -4.71 M117.3 93.7 C77.01 58.68, 36.73 23.67, 4.09 -4.71 M122.55 87.66 C99.58 67.7, 76.61 47.73, 9.34 -10.74 M122.55 87.66 C89.54 58.98, 56.54 30.29, 9.34 -10.74 M124.78 79 C81.86 41.69, 38.94 4.39, 15.34 -16.13 M124.78 79 C82.51 42.26, 40.25 5.52, 15.34 -16.13 M125.5 69.03 C84.8 33.65, 44.11 -1.72, 20.59 -22.16 M125.5 69.03 C91.32 39.32, 57.15 9.61, 20.59 -22.16 M125.46 58.4 C90.16 27.71, 54.87 -2.97, 26.6 -27.55 M125.46 58.4 C89.72 27.33, 53.97 -3.75, 26.6 -27.55 M124.67 47.11 C91.33 18.13, 57.99 -10.85, 34.86 -30.96 M124.67 47.11 C93.7 20.19, 62.73 -6.73, 34.86 -30.96 M114.07 27.3 C98.95 14.15, 83.82 1, 46.15 -31.75 M114.07 27.3 C96.33 11.87, 78.59 -3.55, 46.15 -31.75 M108 11.42 C89.29 -4.84, 70.59 -21.1, 52.91 -36.47 M108 11.42 C93.41 -1.27, 78.81 -13.95, 52.91 -36.47 M107.97 0.79 C99.44 -6.62, 90.92 -14.03, 65.7 -35.95 M107.97 0.79 C98.96 -7.04, 89.96 -14.87, 65.7 -35.95" stroke="#ced4da" stroke-width="1" fill="none"></path><path d="M0 0 C3.17 -3.41, 13.16 -15.36, 19.01 -20.48 C24.86 -25.59, 27.79 -28.76, 35.1 -30.71 C42.41 -32.66, 55.09 -32.66, 62.89 -32.18 C70.69 -31.69, 76.54 -30.96, 81.9 -27.79 C87.26 -24.62, 91.41 -18.77, 95.06 -13.16 C98.72 -7.56, 100.91 -1.22, 103.84 5.85 C106.76 12.92, 109.93 21.45, 112.61 29.25 C115.29 37.05, 118.22 45.58, 119.93 52.65 C121.63 59.72, 122.85 65.33, 122.85 71.66 C122.85 78, 122.36 86.04, 119.93 90.68 C117.49 95.31, 112.86 97.26, 108.23 99.45 C103.59 101.64, 98.72 102.86, 92.14 103.84 C85.56 104.81, 75.08 105.54, 68.74 105.3 C62.4 105.06, 56.79 106.28, 54.11 102.38 C51.43 98.48, 53.87 87.51, 52.65 81.9 C51.43 76.29, 49.48 74.34, 46.8 68.74 C44.12 63.13, 40.71 56.31, 36.56 48.26 C32.42 40.22, 28.03 28.52, 21.94 20.48 C15.84 12.43, 3.66 3.41, 0 0 M0 0 C3.17 -3.41, 13.16 -15.36, 19.01 -20.48 C24.86 -25.59, 27.79 -28.76, 35.1 -30.71 C42.41 -32.66, 55.09 -32.66, 62.89 -32.18 C70.69 -31.69, 76.54 -30.96, 81.9 -27.79 C87.26 -24.62, 91.41 -18.77, 95.06 -13.16 C98.72 -7.56, 100.91 -1.22, 103.84 5.85 C106.76 12.92, 109.93 21.45, 112.61 29.25 C115.29 37.05, 118.22 45.58, 119.93 52.65 C121.63 59.72, 122.85 65.33, 122.85 71.66 C122.85 78, 122.36 86.04, 119.93 90.68 C117.49 95.31, 112.86 97.26, 108.23 99.45 C103.59 101.64, 98.72 102.86, 92.14 103.84 C85.56 104.81, 75.08 105.54, 68.74 105.3 C62.4 105.06, 56.79 106.28, 54.11 102.38 C51.43 98.48, 53.87 87.51, 52.65 81.9 C51.43 76.29, 49.48 74.34, 46.8 68.74 C44.12 63.13, 40.71 56.31, 36.56 48.26 C32.42 40.22, 28.03 28.52, 21.94 20.48 C15.84 12.43, 3.66 3.41, 0 0" stroke="#000000" stroke-width="2" fill="none"></path></g></g><mask></mask><g stroke-linecap="round"><g transform="translate(269.481421346032 617.7884153858977) rotate(0 -59.23184226538362 44.80148356760765)" fill-rule="evenodd"><path d="M-84.89 -16.82 C-84.89 -16.82, -84.89 -16.82, -84.89 -16.82 M-84.89 -16.82 C-84.89 -16.82, -84.89 -16.82, -84.89 -16.82 M-98.54 11.07 C-89.51 0.69, -80.48 -9.7, -67.05 -25.16 M-98.54 11.07 C-87.19 -1.98, -75.85 -15.03, -67.05 -25.16 M-107.59 33.68 C-91.11 14.72, -74.64 -4.23, -55.76 -25.95 M-107.59 33.68 C-90.45 13.96, -73.31 -5.75, -55.76 -25.95 M-114.02 53.26 C-99.92 37.05, -85.82 20.83, -43.82 -27.49 M-114.02 53.26 C-99.9 37.03, -85.78 20.79, -43.82 -27.49 M-116.51 68.32 C-88.56 36.17, -60.61 4.02, -34.5 -26.01 M-116.51 68.32 C-85.25 32.36, -53.99 -3.6, -34.5 -26.01 M-115.06 78.86 C-88.11 47.85, -61.15 16.84, -26.49 -23.03 M-115.06 78.86 C-86.33 45.8, -57.59 12.75, -26.49 -23.03 M-113.62 89.39 C-91.46 63.9, -69.31 38.42, -19.14 -19.29 M-113.62 89.39 C-88.84 60.88, -64.06 32.38, -19.14 -19.29 M-111.51 99.16 C-75.19 57.38, -38.87 15.59, -12.45 -14.8 M-111.51 99.16 C-87.88 71.98, -64.25 44.79, -12.45 -14.8 M-105.48 104.41 C-81.45 76.77, -57.42 49.13, -7.07 -8.79 M-105.48 104.41 C-81.48 76.8, -57.47 49.19, -7.07 -8.79 M-98.13 108.15 C-75.57 82.21, -53.02 56.26, -1.69 -2.79 M-98.13 108.15 C-74.01 80.4, -49.88 52.65, -1.69 -2.79 M-91.43 112.64 C-65.65 82.99, -39.87 53.33, -15.99 25.85 M-91.43 112.64 C-65.44 82.74, -39.45 52.84, -15.99 25.85 M-83.43 115.63 C-65.97 95.55, -48.52 75.47, -30.29 54.5 M-83.43 115.63 C-64.07 93.36, -44.71 71.09, -30.29 54.5 M-74.11 117.1 C-60.87 101.88, -47.64 86.65, -33.43 70.31 M-74.11 117.1 C-64.71 106.29, -55.32 95.49, -33.43 70.31 M-64.79 118.58 C-55.16 107.5, -45.52 96.41, -37.24 86.88 M-64.79 118.58 C-54.19 106.38, -43.59 94.19, -37.24 86.88 M-55.47 120.05 C-48.12 111.6, -40.77 103.14, -32.51 93.64 M-55.47 120.05 C-48.16 111.64, -40.84 103.22, -32.51 93.64 M-110.71 99.93 C-110.71 99.93, -110.71 99.93, -110.71 99.93 M-110.71 99.93 C-110.71 99.93, -110.71 99.93, -110.71 99.93 M-87.35 109.63 C-95.31 102.71, -103.27 95.79, -116.03 84.7 M-87.35 109.63 C-95.13 102.87, -102.91 96.11, -116.03 84.7 M-74.56 110.16 C-89.4 97.26, -104.24 84.35, -116.82 73.42 M-74.56 110.16 C-89.38 97.27, -104.2 84.39, -116.82 73.42 M-60.25 111.99 C-75.44 98.79, -90.62 85.59, -115.35 64.1 M-60.25 111.99 C-76.83 97.58, -93.41 83.17, -115.35 64.1 M-43.68 115.79 C-58.6 102.83, -73.52 89.86, -113.87 54.78 M-43.68 115.79 C-71.46 91.65, -99.23 67.51, -113.87 54.78 M-38.43 109.76 C-54.3 95.97, -70.16 82.18, -110.89 46.78 M-38.43 109.76 C-57.87 92.86, -77.31 75.96, -110.89 46.78 M-37.71 99.78 C-63.45 77.41, -89.18 55.04, -108.66 38.11 M-37.71 99.78 C-62.23 78.47, -86.75 57.16, -108.66 38.11 M-37.75 89.15 C-60.75 69.16, -83.76 49.16, -105.67 30.11 M-37.75 89.15 C-63.73 66.57, -89.7 43.99, -105.67 30.11 M-36.27 79.84 C-61.75 57.69, -87.23 35.54, -102.69 22.1 M-36.27 79.84 C-55.94 62.74, -75.61 45.64, -102.69 22.1 M-34.04 71.17 C-53.26 54.47, -72.47 37.77, -99.7 14.1 M-34.04 71.17 C-53.8 54, -73.55 36.83, -99.7 14.1 M-32.57 61.86 C-53.73 43.46, -74.9 25.06, -95.97 6.75 M-32.57 61.86 C-54.23 43.02, -75.9 24.19, -95.97 6.75 M-30.34 53.19 C-46.94 38.76, -63.54 24.34, -92.98 -1.26 M-30.34 53.19 C-44.71 40.7, -59.09 28.2, -92.98 -1.26 M-26.6 45.84 C-42.35 32.16, -58.09 18.47, -90 -9.27 M-26.6 45.84 C-44.02 30.7, -61.45 15.55, -90 -9.27 M-23.62 37.84 C-40.12 23.49, -56.63 9.14, -85.5 -15.96 M-23.62 37.84 C-37.4 25.86, -51.18 13.88, -85.5 -15.96 M-19.88 30.49 C-34.3 17.95, -48.72 5.42, -80.25 -22 M-19.88 30.49 C-37.18 15.45, -54.49 0.4, -80.25 -22 M-16.14 23.14 C-29.81 11.26, -43.48 -0.63, -74.25 -27.38 M-16.14 23.14 C-32.6 8.83, -49.06 -5.48, -74.25 -27.38 M-11.64 16.44 C-32.73 -1.89, -53.82 -20.22, -65.23 -30.14 M-11.64 16.44 C-25.93 4.03, -40.22 -8.39, -65.23 -30.14 M-7.15 9.75 C-23.05 -4.07, -38.96 -17.9, -54.7 -31.58 M-7.15 9.75 C-19.63 -1.1, -32.11 -11.94, -54.7 -31.58 M-1.9 3.71 C-12.99 -5.93, -24.08 -15.56, -41.9 -31.06 M-1.9 3.71 C-14.01 -6.81, -26.12 -17.34, -41.9 -31.06" stroke="#ced4da" stroke-width="1" fill="none"></path><path d="M0 0 C-2.44 -2.68, -9.51 -11.7, -14.63 -16.09 C-19.74 -20.48, -23.4 -24.38, -30.71 -26.33 C-38.03 -28.28, -50.7 -28.28, -58.5 -27.79 C-66.3 -27.3, -72.15 -26.57, -77.51 -23.4 C-82.88 -20.23, -87.02 -14.38, -90.68 -8.78 C-94.33 -3.17, -96.53 3.17, -99.45 10.24 C-102.38 17.31, -105.54 25.84, -108.23 33.64 C-110.91 41.44, -113.83 49.97, -115.54 57.04 C-117.24 64.11, -118.46 69.71, -118.46 76.05 C-118.46 82.39, -117.98 90.43, -115.54 95.06 C-113.1 99.69, -108.23 101.16, -103.84 103.84 C-99.45 106.52, -95.55 109.2, -89.21 111.15 C-82.88 113.1, -73.86 114.81, -65.81 115.54 C-57.77 116.27, -45.58 119.93, -40.95 115.54 C-36.32 111.15, -39 95.79, -38.03 89.21 C-37.05 82.63, -36.32 81.9, -35.1 76.05 C-33.88 70.2, -33.64 62.64, -30.71 54.11 C-27.79 45.58, -22.67 33.88, -17.55 24.86 C-12.43 15.84, -2.93 4.14, 0 0 M0 0 C-2.44 -2.68, -9.51 -11.7, -14.63 -16.09 C-19.74 -20.48, -23.4 -24.38, -30.71 -26.33 C-38.03 -28.28, -50.7 -28.28, -58.5 -27.79 C-66.3 -27.3, -72.15 -26.57, -77.51 -23.4 C-82.88 -20.23, -87.02 -14.38, -90.68 -8.78 C-94.33 -3.17, -96.53 3.17, -99.45 10.24 C-102.38 17.31, -105.54 25.84, -108.23 33.64 C-110.91 41.44, -113.83 49.97, -115.54 57.04 C-117.24 64.11, -118.46 69.71, -118.46 76.05 C-118.46 82.39, -117.98 90.43, -115.54 95.06 C-113.1 99.69, -108.23 101.16, -103.84 103.84 C-99.45 106.52, -95.55 109.2, -89.21 111.15 C-82.88 113.1, -73.86 114.81, -65.81 115.54 C-57.77 116.27, -45.58 119.93, -40.95 115.54 C-36.32 111.15, -39 95.79, -38.03 89.21 C-37.05 82.63, -36.32 81.9, -35.1 76.05 C-33.88 70.2, -33.64 62.64, -30.71 54.11 C-27.79 45.58, -22.67 33.88, -17.55 24.86 C-12.43 15.84, -2.93 4.14, 0 0" stroke="#000000" stroke-width="2" fill="none"></path></g></g><mask></mask><g transform="translate(1673.9607581218995 759.9714796574444) rotate(0 137.00344848632812 45.925943929754794)"><text x="0" y="0" font-family="Virgil, Segoe UI Emoji" font-size="73.48151028760871px" fill="#000000" text-anchor="start" style="white-space: pre;" direction="ltr" dominant-baseline="text-before-edge">Lottery</text></g><g stroke-linecap="round" transform="translate(1826.6614083982877 512.8537361616945) rotate(0 36.28212697087906 31.746861099520174)"><path d="M7.15 12.84 C7.15 12.84, 7.15 12.84, 7.15 12.84 M7.15 12.84 C7.15 12.84, 7.15 12.84, 7.15 12.84 M0.72 32.43 C8.22 23.8, 15.72 15.17, 26.3 2.99 M0.72 32.43 C8.47 23.5, 16.23 14.58, 26.3 2.99 M2.82 42.2 C16.57 26.38, 30.32 10.56, 38.25 1.45 M2.82 42.2 C11.68 32.01, 20.54 21.82, 38.25 1.45 M7.55 48.96 C18.3 36.58, 29.06 24.21, 48.22 2.17 M7.55 48.96 C22.79 31.42, 38.04 13.88, 48.22 2.17 M12.27 55.72 C24.75 41.36, 37.23 27.01, 55.57 5.91 M12.27 55.72 C21.47 45.13, 30.67 34.55, 55.57 5.91 M18.31 60.97 C33.45 43.54, 48.6 26.12, 62.92 9.65 M18.31 60.97 C33.42 43.58, 48.53 26.2, 62.92 9.65 M26.97 63.2 C40.54 47.58, 54.12 31.97, 68.3 15.65 M26.97 63.2 C35.4 53.5, 43.82 43.81, 68.3 15.65 M36.94 63.92 C44.4 55.34, 51.85 46.77, 72.37 23.16 M36.94 63.92 C46.43 53, 55.92 42.09, 72.37 23.16 M48.23 63.13 C56.15 54.02, 64.07 44.91, 74.47 32.94 M48.23 63.13 C54.37 56.06, 60.51 49, 74.47 32.94 M10.95 54.47 C10.95 54.47, 10.95 54.47, 10.95 54.47 M10.95 54.47 C10.95 54.47, 10.95 54.47, 10.95 54.47 M31.29 61.56 C19.89 51.65, 8.49 41.73, 1.1 35.31 M31.29 61.56 C24.92 56.02, 18.55 50.48, 1.1 35.31 M43.33 61.42 C33.33 52.73, 23.33 44.04, 1.82 25.34 M43.33 61.42 C28.53 48.56, 13.74 35.7, 1.82 25.34 M53.11 59.32 C43.19 50.7, 33.27 42.08, 4.05 16.68 M53.11 59.32 C41.24 49.01, 29.38 38.69, 4.05 16.68 M59.87 54.6 C48.86 45.03, 37.86 35.47, 9.3 10.64 M59.87 54.6 C49.53 45.61, 39.19 36.62, 9.3 10.64 M66.62 49.87 C46.2 32.12, 25.78 14.37, 15.3 5.26 M66.62 49.87 C49.61 35.08, 32.59 20.29, 15.3 5.26 M71.12 43.18 C60.12 33.62, 49.12 24.05, 22.06 0.53 M71.12 43.18 C51.76 26.35, 32.4 9.52, 22.06 0.53 M74.1 35.17 C62.95 25.48, 51.79 15.78, 31.84 -1.57 M74.1 35.17 C62.11 24.75, 50.12 14.33, 31.84 -1.57 M71.05 21.92 C62.02 14.07, 53 6.23, 47.65 1.58 M71.05 21.92 C63.04 14.96, 55.04 8, 47.65 1.58" stroke="#ced4da" stroke-width="1" fill="none"></path><path d="M72.56 31.75 C72.56 33.4, 72.41 35.08, 72.12 36.71 C71.82 38.35, 71.37 39.98, 70.79 41.56 C70.2 43.13, 69.47 44.68, 68.61 46.16 C67.75 47.63, 66.75 49.07, 65.63 50.41 C64.52 51.75, 63.28 53.02, 61.94 54.2 C60.6 55.37, 59.14 56.46, 57.61 57.43 C56.08 58.4, 54.44 59.28, 52.75 60.03 C51.07 60.79, 49.29 61.43, 47.49 61.94 C45.69 62.45, 43.83 62.84, 41.96 63.1 C40.09 63.36, 38.17 63.49, 36.28 63.49 C34.39 63.49, 32.47 63.36, 30.61 63.1 C28.74 62.84, 26.87 62.45, 25.07 61.94 C23.27 61.43, 21.5 60.79, 19.81 60.03 C18.12 59.28, 16.49 58.4, 14.96 57.43 C13.43 56.46, 11.96 55.37, 10.63 54.2 C9.29 53.02, 8.04 51.75, 6.93 50.41 C5.82 49.07, 4.81 47.63, 3.95 46.16 C3.1 44.68, 2.36 43.13, 1.78 41.56 C1.19 39.98, 0.74 38.35, 0.45 36.71 C0.15 35.08, 0 33.4, 0 31.75 C0 30.09, 0.15 28.42, 0.45 26.78 C0.74 25.15, 1.19 23.51, 1.78 21.94 C2.36 20.36, 3.1 18.81, 3.95 17.33 C4.81 15.86, 5.82 14.43, 6.93 13.09 C8.04 11.75, 9.29 10.47, 10.63 9.3 C11.96 8.13, 13.43 7.04, 14.96 6.06 C16.49 5.09, 18.12 4.21, 19.81 3.46 C21.5 2.71, 23.27 2.07, 25.07 1.55 C26.87 1.04, 28.74 0.65, 30.61 0.39 C32.47 0.13, 34.39 0, 36.28 0 C38.17 0, 40.09 0.13, 41.96 0.39 C43.83 0.65, 45.69 1.04, 47.49 1.55 C49.29 2.07, 51.07 2.71, 52.75 3.46 C54.44 4.21, 56.08 5.09, 57.61 6.06 C59.14 7.04, 60.6 8.13, 61.94 9.3 C63.28 10.47, 64.52 11.75, 65.63 13.09 C66.75 14.43, 67.75 15.86, 68.61 17.33 C69.47 18.81, 70.2 20.36, 70.79 21.94 C71.37 23.51, 71.82 25.15, 72.12 26.78 C72.41 28.42, 72.49 30.92, 72.56 31.75 C72.64 32.57, 72.64 30.92, 72.56 31.75" stroke="#000000" stroke-width="2" fill="none"></path></g><g stroke-linecap="round" transform="translate(1668.0013286771325 514.9959712287709) rotate(0 36.282126970879176 31.746861099520174)"><path d="M7.15 12.84 C7.15 12.84, 7.15 12.84, 7.15 12.84 M7.15 12.84 C7.15 12.84, 7.15 12.84, 7.15 12.84 M0.72 32.43 C10.11 21.62, 19.5 10.82, 26.3 2.99 M0.72 32.43 C10.19 21.53, 19.66 10.64, 26.3 2.99 M2.82 42.2 C13.89 29.47, 24.96 16.74, 38.25 1.45 M2.82 42.2 C15.35 27.78, 27.89 13.37, 38.25 1.45 M7.55 48.96 C20.87 33.63, 34.19 18.31, 48.22 2.17 M7.55 48.96 C22.25 32.05, 36.95 15.13, 48.22 2.17 M12.27 55.72 C27.79 37.87, 43.31 20.01, 55.57 5.91 M12.27 55.72 C21.47 45.14, 30.66 34.56, 55.57 5.91 M18.31 60.97 C27.77 50.08, 37.24 39.19, 62.92 9.65 M18.31 60.97 C30.32 47.15, 42.33 33.33, 62.92 9.65 M26.97 63.2 C42.36 45.49, 57.76 27.78, 68.3 15.65 M26.97 63.2 C42.39 45.46, 57.8 27.73, 68.3 15.65 M36.94 63.92 C48.12 51.07, 59.29 38.21, 72.37 23.16 M36.94 63.92 C46.75 52.64, 56.56 41.36, 72.37 23.16 M48.23 63.13 C56.75 53.32, 65.27 43.52, 74.47 32.94 M48.23 63.13 C58.22 51.64, 68.21 40.14, 74.47 32.94 M10.95 54.47 C10.95 54.47, 10.95 54.47, 10.95 54.47 M10.95 54.47 C10.95 54.47, 10.95 54.47, 10.95 54.47 M31.29 61.56 C21.87 53.37, 12.44 45.18, 1.1 35.31 M31.29 61.56 C21.36 52.93, 11.44 44.3, 1.1 35.31 M43.33 61.42 C33.45 52.83, 23.56 44.24, 1.82 25.34 M43.33 61.42 C34.35 53.62, 25.37 45.81, 1.82 25.34 M53.11 59.32 C40.45 48.32, 27.8 37.32, 4.05 16.68 M53.11 59.32 C35.48 44, 17.85 28.68, 4.05 16.68 M59.87 54.6 C48.26 44.51, 36.66 34.42, 9.3 10.64 M59.87 54.6 C44.33 41.1, 28.8 27.59, 9.3 10.64 M66.62 49.87 C55.74 40.41, 44.85 30.94, 15.3 5.26 M66.62 49.87 C48.02 33.7, 29.42 17.53, 15.3 5.26 M71.12 43.18 C52.34 26.85, 33.56 10.53, 22.06 0.53 M71.12 43.18 C60.56 34, 50.01 24.83, 22.06 0.53 M74.1 35.17 C63.48 25.94, 52.87 16.71, 31.84 -1.57 M74.1 35.17 C62.39 24.99, 50.69 14.82, 31.84 -1.57 M71.05 21.92 C62.26 14.28, 53.48 6.64, 47.65 1.58 M71.05 21.92 C63.66 15.49, 56.27 9.07, 47.65 1.58" stroke="#ced4da" stroke-width="1" fill="none"></path><path d="M72.56 31.75 C72.56 33.4, 72.41 35.08, 72.12 36.71 C71.82 38.35, 71.37 39.98, 70.79 41.56 C70.2 43.13, 69.47 44.68, 68.61 46.16 C67.75 47.63, 66.75 49.07, 65.63 50.41 C64.52 51.75, 63.28 53.02, 61.94 54.2 C60.6 55.37, 59.14 56.46, 57.61 57.43 C56.08 58.4, 54.44 59.28, 52.75 60.03 C51.07 60.79, 49.29 61.43, 47.49 61.94 C45.69 62.45, 43.83 62.84, 41.96 63.1 C40.09 63.36, 38.17 63.49, 36.28 63.49 C34.39 63.49, 32.47 63.36, 30.61 63.1 C28.74 62.84, 26.87 62.45, 25.07 61.94 C23.27 61.43, 21.5 60.79, 19.81 60.03 C18.12 59.28, 16.49 58.4, 14.96 57.43 C13.43 56.46, 11.96 55.37, 10.63 54.2 C9.29 53.02, 8.04 51.75, 6.93 50.41 C5.82 49.07, 4.81 47.63, 3.95 46.16 C3.1 44.68, 2.36 43.13, 1.78 41.56 C1.19 39.98, 0.74 38.35, 0.45 36.71 C0.15 35.08, 0 33.4, 0 31.75 C0 30.09, 0.15 28.42, 0.45 26.78 C0.74 25.15, 1.19 23.51, 1.78 21.94 C2.36 20.36, 3.1 18.81, 3.95 17.33 C4.81 15.86, 5.82 14.43, 6.93 13.09 C8.04 11.75, 9.29 10.47, 10.63 9.3 C11.96 8.13, 13.43 7.04, 14.96 6.06 C16.49 5.09, 18.12 4.21, 19.81 3.46 C21.5 2.71, 23.27 2.07, 25.07 1.55 C26.87 1.04, 28.74 0.65, 30.61 0.39 C32.47 0.13, 34.39 0, 36.28 0 C38.17 0, 40.09 0.13, 41.96 0.39 C43.83 0.65, 45.69 1.04, 47.49 1.55 C49.29 2.07, 51.07 2.71, 52.75 3.46 C54.44 4.21, 56.08 5.09, 57.61 6.06 C59.14 7.04, 60.6 8.13, 61.94 9.3 C63.28 10.47, 64.52 11.75, 65.63 13.09 C66.75 14.43, 67.75 15.86, 68.61 17.33 C69.47 18.81, 70.2 20.36, 70.79 21.94 C71.37 23.51, 71.82 25.15, 72.12 26.78 C72.41 28.42, 72.49 30.92, 72.56 31.75 C72.64 32.57, 72.64 30.92, 72.56 31.75" stroke="#000000" stroke-width="2" fill="none"></path></g><g stroke-linecap="round"><g transform="translate(1706.402104646534 731.5130466695446) rotate(0 80.4932625718427 -67.94853048076038)" fill-rule="evenodd"><path d="M28.79 -107.48 C28.79 -107.48, 28.79 -107.48, 28.79 -107.48 M28.79 -107.48 C28.79 -107.48, 28.79 -107.48, 28.79 -107.48 M15.14 -79.59 C24.98 -90.9, 34.81 -102.22, 59.75 -130.91 M15.14 -79.59 C30.68 -97.46, 46.21 -115.33, 59.75 -130.91 M13.31 -65.28 C27.36 -81.45, 41.41 -97.61, 74.98 -136.23 M13.31 -65.28 C25.64 -79.47, 37.98 -93.66, 74.98 -136.23 M10.82 -50.22 C26.63 -68.41, 42.44 -86.6, 83.64 -134 M10.82 -50.22 C31.73 -74.29, 52.65 -98.35, 83.64 -134 M10.29 -37.43 C37.49 -68.72, 64.69 -100.01, 92.3 -131.77 M10.29 -37.43 C33.27 -63.86, 56.24 -90.29, 92.3 -131.77 M9.11 -23.88 C27.59 -45.13, 46.07 -66.39, 99.65 -128.03 M9.11 -23.88 C37.59 -56.64, 66.07 -89.4, 99.65 -128.03 M7.28 -9.57 C34.38 -40.74, 61.47 -71.91, 107 -124.29 M7.28 -9.57 C29.82 -35.5, 52.36 -61.43, 107 -124.29 M5.44 4.73 C47.91 -44.12, 90.38 -92.97, 113.69 -119.79 M5.44 4.73 C36.25 -30.7, 67.05 -66.13, 113.69 -119.79 M16.07 4.7 C53.35 -38.19, 90.63 -81.07, 119.73 -114.55 M16.07 4.7 C39.78 -22.57, 63.48 -49.84, 119.73 -114.55 M26.7 4.66 C57.9 -31.23, 89.1 -67.12, 124.46 -107.79 M26.7 4.66 C46.26 -17.83, 65.81 -40.33, 124.46 -107.79 M36.68 5.38 C63.1 -25.01, 89.52 -55.41, 129.84 -101.79 M36.68 5.38 C71.86 -35.09, 107.04 -75.56, 129.84 -101.79 M47.31 5.35 C77.96 -29.91, 108.61 -65.17, 135.22 -95.78 M47.31 5.35 C74.76 -26.23, 102.22 -57.82, 135.22 -95.78 M57.94 5.31 C74.9 -14.19, 91.85 -33.7, 139.29 -88.27 M57.94 5.31 C87.3 -28.46, 116.66 -62.24, 139.29 -88.27 M68.57 5.28 C96.34 -26.67, 124.11 -58.62, 143.36 -80.76 M68.57 5.28 C85.1 -13.73, 101.63 -32.75, 143.36 -80.76 M81.17 2.98 C99.78 -18.43, 118.39 -39.84, 148.74 -74.75 M81.17 2.98 C105.82 -25.38, 130.48 -53.75, 148.74 -74.75 M91.8 2.95 C110.16 -18.18, 128.53 -39.31, 152.15 -66.49 M91.8 2.95 C114.38 -23.04, 136.97 -49.02, 152.15 -66.49 M103.74 1.4 C119.62 -16.86, 135.49 -35.13, 156.22 -58.97 M103.74 1.4 C123.39 -21.2, 143.04 -43.8, 156.22 -58.97 M115.02 0.61 C132.22 -19.17, 149.42 -38.95, 158.98 -49.95 M115.02 0.61 C131.23 -18.02, 147.43 -36.66, 158.98 -49.95 M125.66 0.58 C135.53 -10.78, 145.41 -22.15, 160.43 -39.42 M125.66 0.58 C135.14 -10.33, 144.62 -21.23, 160.43 -39.42 M138.25 -1.72 C145.4 -9.94, 152.54 -18.15, 161.87 -28.89 M138.25 -1.72 C144.14 -8.49, 150.02 -15.25, 161.87 -28.89 M0 0 C0 0, 0 0, 0 0 M0 0 C0 0, 0 0, 0 0 M12.04 -0.13 C9.56 -2.29, 7.08 -4.44, 1.47 -9.32 M12.04 -0.13 C9.83 -2.05, 7.62 -3.97, 1.47 -9.32 M24.84 0.39 C16.43 -6.92, 8.01 -14.23, 2.2 -19.29 M24.84 0.39 C16.66 -6.71, 8.49 -13.82, 2.2 -19.29 M36.88 0.26 C29.86 -5.84, 22.85 -11.94, 3.67 -28.61 M36.88 0.26 C27.23 -8.13, 17.59 -16.51, 3.67 -28.61 M49.67 0.78 C38.4 -9.02, 27.12 -18.83, 4.39 -38.58 M49.67 0.78 C35.65 -11.41, 21.63 -23.6, 4.39 -38.58 M61.71 0.65 C41.24 -17.15, 20.77 -34.95, 8.13 -45.93 M61.71 0.65 C46.52 -12.56, 31.33 -25.77, 8.13 -45.93 M74.51 1.17 C59.93 -11.5, 45.36 -24.17, 9.6 -55.25 M74.51 1.17 C57.33 -13.76, 40.16 -28.69, 9.6 -55.25 M82.02 -2.9 C59.05 -22.87, 36.09 -42.83, 11.08 -64.57 M82.02 -2.9 C65.91 -16.91, 49.79 -30.91, 11.08 -64.57 M94.06 -3.03 C71.83 -22.36, 49.59 -41.69, 13.31 -73.23 M94.06 -3.03 C69.72 -24.19, 45.38 -45.35, 13.31 -73.23 M105.35 -3.82 C74.62 -30.53, 43.9 -57.24, 14.78 -82.55 M105.35 -3.82 C77.42 -28.1, 49.5 -52.37, 14.78 -82.55 M116.64 -4.61 C81.52 -35.14, 46.4 -65.67, 17.77 -90.56 M116.64 -4.61 C77.7 -38.46, 38.77 -72.3, 17.77 -90.56 M127.92 -5.4 C90.07 -38.31, 52.21 -71.21, 22.26 -97.25 M127.92 -5.4 C89.58 -38.73, 51.25 -72.05, 22.26 -97.25 M137.7 -7.5 C105.02 -35.91, 72.34 -64.32, 26.76 -103.94 M137.7 -7.5 C102.84 -37.8, 67.98 -68.1, 26.76 -103.94 M149.74 -7.64 C121.67 -32.04, 93.6 -56.44, 31.25 -110.64 M149.74 -7.64 C105.35 -46.22, 60.96 -84.81, 31.25 -110.64 M156.5 -12.36 C120.68 -43.49, 84.87 -74.63, 37.25 -116.02 M156.5 -12.36 C116.75 -46.92, 77 -81.47, 37.25 -116.02 M160.99 -19.05 C130.43 -45.62, 99.87 -72.18, 42.5 -122.06 M160.99 -19.05 C116.41 -57.81, 71.82 -96.57, 42.5 -122.06 M161.71 -29.03 C132.72 -54.23, 103.73 -79.43, 48.5 -127.44 M161.71 -29.03 C125.43 -60.57, 89.15 -92.11, 48.5 -127.44 M160.17 -40.97 C135.98 -62, 111.79 -83.03, 55.26 -132.16 M160.17 -40.97 C123.59 -72.76, 87.02 -104.56, 55.26 -132.16 M156.36 -54.88 C135.59 -72.93, 114.83 -90.98, 62.77 -136.23 M156.36 -54.88 C133.59 -74.67, 110.83 -94.46, 62.77 -136.23 M148.02 -72.73 C119.12 -97.86, 90.21 -122.98, 74.06 -137.02 M148.02 -72.73 C124.27 -93.37, 100.52 -114.02, 74.06 -137.02 M137.42 -92.54 C121.02 -106.8, 104.62 -121.06, 88.37 -135.19 M137.42 -92.54 C124.29 -103.96, 111.16 -115.38, 88.37 -135.19" stroke="#ced4da" stroke-width="1" fill="none"></path><path d="M0 0 C2.87 -15.11, 4.92 -67.84, 17.2 -90.63 C29.49 -113.43, 54.89 -135.13, 73.73 -136.77 C92.57 -138.42, 116.94 -121.75, 130.25 -100.52 C143.56 -79.29, 175.31 -26.16, 153.6 -9.41 C131.89 7.34, 25.6 -1.57, 0 0 M0 0 C2.87 -15.11, 4.92 -67.84, 17.2 -90.63 C29.49 -113.43, 54.89 -135.13, 73.73 -136.77 C92.57 -138.42, 116.94 -121.75, 130.25 -100.52 C143.56 -79.29, 175.31 -26.16, 153.6 -9.41 C131.89 7.34, 25.6 -1.57, 0 0" stroke="#000000" stroke-width="2" fill="none"></path></g></g><mask></mask><g stroke-linecap="round" transform="translate(1744.9289092816273 523.6540198912953) rotate(0 39.321192650056105 34.40604356879885)"><path d="M7.36 14.35 C7.36 14.35, 7.36 14.35, 7.36 14.35 M7.36 14.35 C7.36 14.35, 7.36 14.35, 7.36 14.35 M0.28 34.69 C7.34 26.57, 14.4 18.45, 28.49 2.24 M0.28 34.69 C6.98 26.98, 13.69 19.27, 28.49 2.24 M3.69 42.96 C12.84 32.44, 21.99 21.92, 40.43 0.7 M3.69 42.96 C11.46 34.02, 19.23 25.08, 40.43 0.7 M6.45 51.98 C22.37 33.66, 38.3 15.35, 49.09 2.93 M6.45 51.98 C17.08 39.76, 27.71 27.53, 49.09 2.93 M11.83 57.99 C28.2 39.15, 44.58 20.32, 58.41 4.4 M11.83 57.99 C28.89 38.36, 45.95 18.74, 58.41 4.4 M17.87 63.23 C35.15 43.36, 52.43 23.48, 65.11 8.9 M17.87 63.23 C28.63 50.85, 39.4 38.47, 65.11 8.9 M24.56 67.73 C37.11 53.29, 49.66 38.85, 71.14 14.14 M24.56 67.73 C37.78 52.52, 51 37.32, 71.14 14.14 M33.88 69.2 C46.74 54.41, 59.6 39.62, 76.53 20.15 M33.88 69.2 C42.5 59.28, 51.13 49.36, 76.53 20.15 M42.54 71.43 C53.47 58.86, 64.4 46.3, 78.63 29.92 M42.54 71.43 C49.92 62.95, 57.3 54.46, 78.63 29.92 M57.77 66.12 C62.77 60.35, 67.78 54.59, 79.42 41.21 M57.77 66.12 C64.24 58.66, 70.72 51.21, 79.42 41.21 M11.35 58.59 C11.35 58.59, 11.35 58.59, 11.35 58.59 M11.35 58.59 C11.35 58.59, 11.35 58.59, 11.35 58.59 M33.95 67.64 C24.57 59.48, 15.19 51.33, 0.75 38.77 M33.95 67.64 C25.84 60.58, 17.72 53.53, 0.75 38.77 M45.99 67.51 C30.22 53.8, 14.45 40.09, 0.71 28.14 M45.99 67.51 C29.76 53.39, 13.52 39.28, 0.71 28.14 M54.26 64.09 C36.39 48.56, 18.52 33.02, 4.45 20.79 M54.26 64.09 C41.23 52.76, 28.2 41.44, 4.45 20.79 M63.28 61.33 C47.14 47.3, 31 33.27, 8.19 13.44 M63.28 61.33 C45.94 46.26, 28.59 31.18, 8.19 13.44 M69.29 55.95 C55.84 44.27, 42.4 32.58, 13.44 7.4 M69.29 55.95 C48.44 37.83, 27.6 19.71, 13.44 7.4 M74.54 49.92 C62.66 39.59, 50.79 29.27, 20.2 2.68 M74.54 49.92 C57.16 34.81, 39.78 19.7, 20.2 2.68 M78.27 42.57 C64.28 30.4, 50.3 18.24, 29.22 -0.08 M78.27 42.57 C63.56 29.77, 48.84 16.98, 29.22 -0.08 M79.75 33.25 C65.72 21.05, 51.69 8.86, 40.5 -0.87 M79.75 33.25 C69.7 24.51, 59.66 15.78, 40.5 -0.87 M74.43 18.03 C69.02 13.32, 63.62 8.62, 57.83 3.59 M74.43 18.03 C68.44 12.81, 62.44 7.6, 57.83 3.59" stroke="#ced4da" stroke-width="1" fill="none"></path><path d="M78.64 34.41 C78.64 36.2, 78.48 38.02, 78.16 39.79 C77.84 41.56, 77.35 43.33, 76.72 45.04 C76.08 46.74, 75.29 48.43, 74.36 50.03 C73.43 51.62, 72.34 53.18, 71.13 54.63 C69.93 56.08, 68.58 57.47, 67.13 58.73 C65.68 60, 64.09 61.19, 62.43 62.24 C60.77 63.3, 59 64.25, 57.17 65.06 C55.35 65.88, 53.42 66.57, 51.47 67.13 C49.52 67.68, 47.5 68.11, 45.47 68.39 C43.45 68.67, 41.37 68.81, 39.32 68.81 C37.27 68.81, 35.2 68.67, 33.17 68.39 C31.14 68.11, 29.12 67.68, 27.17 67.13 C25.22 66.57, 23.3 65.88, 21.47 65.06 C19.64 64.25, 17.87 63.3, 16.21 62.24 C14.55 61.19, 12.97 60, 11.52 58.73 C10.07 57.47, 8.71 56.08, 7.51 54.63 C6.3 53.18, 5.22 51.62, 4.29 50.03 C3.35 48.43, 2.56 46.74, 1.92 45.04 C1.29 43.33, 0.8 41.56, 0.48 39.79 C0.16 38.02, 0 36.2, 0 34.41 C0 32.61, 0.16 30.8, 0.48 29.02 C0.8 27.25, 1.29 25.48, 1.92 23.77 C2.56 22.07, 3.35 20.38, 4.29 18.79 C5.22 17.19, 6.3 15.63, 7.51 14.18 C8.71 12.73, 10.07 11.35, 11.52 10.08 C12.97 8.81, 14.55 7.63, 16.21 6.57 C17.87 5.52, 19.64 4.56, 21.47 3.75 C23.3 2.94, 25.22 2.24, 27.17 1.68 C29.12 1.13, 31.14 0.7, 33.17 0.42 C35.2 0.14, 37.27 0, 39.32 0 C41.37 0, 43.45 0.14, 45.47 0.42 C47.5 0.7, 49.52 1.13, 51.47 1.68 C53.42 2.24, 55.35 2.94, 57.17 3.75 C59 4.56, 60.77 5.52, 62.43 6.57 C64.09 7.63, 65.68 8.81, 67.13 10.08 C68.58 11.35, 69.93 12.73, 71.13 14.18 C72.34 15.63, 73.43 17.19, 74.36 18.79 C75.29 20.38, 76.08 22.07, 76.72 23.77 C77.35 25.48, 77.84 27.25, 78.16 29.02 C78.48 30.8, 78.56 33.51, 78.64 34.41 C78.72 35.3, 78.72 33.51, 78.64 34.41" stroke="#000000" stroke-width="2" fill="none"></path></g><g stroke-linecap="round"><g transform="translate(1813.5063124512224 607.8103605180913) rotate(0 61.4256142011385 36.45106898961785)" fill-rule="evenodd"><path d="M0 0 C0 0, 0 0, 0 0 M0 0 C0 0, 0 0, 0 0 M6.04 5.25 C13.18 -2.97, 20.33 -11.19, 36.22 -29.47 M6.04 5.25 C13.71 -3.58, 21.39 -12.41, 36.22 -29.47 M12.08 10.5 C23.32 -2.44, 34.57 -15.38, 48.81 -31.77 M12.08 10.5 C23.79 -2.98, 35.51 -16.47, 48.81 -31.77 M18.11 15.75 C27.51 4.93, 36.91 -5.88, 59.44 -31.8 M18.11 15.75 C33.23 -1.64, 48.34 -19.03, 59.44 -31.8 M23.49 21.75 C36.62 6.65, 49.74 -8.44, 67.45 -28.82 M23.49 21.75 C38.22 4.81, 52.94 -12.12, 67.45 -28.82 M27.56 29.26 C40.2 14.73, 52.83 0.2, 76.77 -27.34 M27.56 29.26 C41.48 13.26, 55.39 -2.75, 76.77 -27.34 M32.29 36.02 C53.23 11.93, 74.17 -12.16, 85.43 -25.11 M32.29 36.02 C43.72 22.87, 55.16 9.71, 85.43 -25.11 M35.7 44.29 C56.5 20.36, 77.31 -3.57, 91.47 -19.86 M35.7 44.29 C48.1 30.02, 60.51 15.75, 91.47 -19.86 M39.77 51.8 C58.84 29.86, 77.92 7.92, 95.54 -12.35 M39.77 51.8 C57.25 31.7, 74.72 11.6, 95.54 -12.35 M43.84 59.31 C63.43 36.78, 83.01 14.26, 99.61 -4.84 M43.84 59.31 C63.36 36.86, 82.87 14.42, 99.61 -4.84 M47.26 67.58 C62.2 50.39, 77.14 33.2, 103.02 3.43 M47.26 67.58 C62.95 49.52, 78.65 31.47, 103.02 3.43 M50.67 75.85 C73.34 49.76, 96.01 23.68, 108.4 9.43 M50.67 75.85 C66.78 57.31, 82.89 38.78, 108.4 9.43 M54.74 83.36 C75.86 59.07, 96.97 34.77, 111.16 18.45 M54.74 83.36 C75.62 59.34, 96.49 35.33, 111.16 18.45 M54.87 95.4 C68.35 79.9, 81.82 64.4, 114.57 26.72 M54.87 95.4 C77.08 69.85, 99.3 44.29, 114.57 26.72 M56.97 105.18 C71.76 88.17, 86.54 71.16, 118.64 34.23 M56.97 105.18 C77.19 81.91, 97.42 58.65, 118.64 34.23 M64.32 108.92 C76.01 95.48, 87.69 82.04, 121.4 43.26 M64.32 108.92 C77.99 93.19, 91.66 77.47, 121.4 43.26 M74.95 108.88 C90.06 91.51, 105.16 74.13, 122.19 54.54 M74.95 108.88 C89.24 92.45, 103.52 76.01, 122.19 54.54 M84.93 109.6 C93.23 100.05, 101.53 90.5, 124.29 64.32 M84.93 109.6 C94.39 98.72, 103.85 87.83, 124.29 64.32 M101.46 102.77 C107.6 95.71, 113.74 88.65, 126.39 74.1 M101.46 102.77 C109.92 93.04, 118.38 83.31, 126.39 74.1 M54.11 102.37 C54.11 102.37, 54.11 102.37, 54.11 102.37 M54.11 102.37 C54.11 102.37, 54.11 102.37, 54.11 102.37 M63.89 100.27 C61.41 98.12, 58.94 95.97, 56.34 93.71 M63.89 100.27 C61.75 98.42, 59.61 96.56, 56.34 93.71 M81.21 104.73 C73.88 98.36, 66.55 91.99, 53.29 80.46 M81.21 104.73 C75.04 99.36, 68.86 94, 53.29 80.46 M90.99 102.63 C81.76 94.61, 72.53 86.58, 54.01 70.48 M90.99 102.63 C80.78 93.76, 70.58 84.89, 54.01 70.48 M101.52 101.18 C90.02 91.19, 78.53 81.2, 44.92 51.98 M101.52 101.18 C81.07 83.41, 60.63 65.64, 44.92 51.98 M109.79 97.77 C81.07 72.81, 52.35 47.84, 32.81 30.85 M109.79 97.77 C89.83 80.42, 69.87 63.07, 32.81 30.85 M117.3 93.7 C76.41 58.15, 35.51 22.61, 4.09 -4.71 M117.3 93.7 C77.06 58.73, 36.83 23.75, 4.09 -4.71 M122.55 87.66 C95.77 64.39, 68.99 41.11, 9.34 -10.74 M122.55 87.66 C91.7 60.85, 60.85 34.04, 9.34 -10.74 M124.78 79 C86.38 45.62, 47.98 12.24, 15.34 -16.13 M124.78 79 C102.35 59.5, 79.92 40, 15.34 -16.13 M125.5 69.03 C98.78 45.8, 72.05 22.57, 20.59 -22.16 M125.5 69.03 C88.4 36.78, 51.31 4.54, 20.59 -22.16 M125.46 58.4 C94.55 31.53, 63.64 4.66, 26.6 -27.55 M125.46 58.4 C99.8 36.09, 74.14 13.79, 26.6 -27.55 M124.67 47.11 C105 30.01, 85.34 12.92, 34.86 -30.96 M124.67 47.11 C103.21 28.45, 81.75 9.8, 34.86 -30.96 M114.07 27.3 C99.56 14.69, 85.06 2.07, 46.15 -31.75 M114.07 27.3 C92.52 8.56, 70.97 -10.17, 46.15 -31.75 M108 11.42 C86.11 -7.61, 64.23 -26.63, 52.91 -36.47 M108 11.42 C93.48 -1.2, 78.97 -13.82, 52.91 -36.47 M107.97 0.79 C93.28 -11.98, 78.6 -24.74, 65.7 -35.95 M107.97 0.79 C94.24 -11.14, 80.52 -23.07, 65.7 -35.95" stroke="#ced4da" stroke-width="1" fill="none"></path><path d="M0 0 C3.17 -3.41, 13.16 -15.36, 19.01 -20.48 C24.86 -25.59, 27.79 -28.76, 35.1 -30.71 C42.41 -32.66, 55.09 -32.66, 62.89 -32.18 C70.69 -31.69, 76.54 -30.96, 81.9 -27.79 C87.26 -24.62, 91.41 -18.77, 95.06 -13.16 C98.72 -7.56, 100.91 -1.22, 103.84 5.85 C106.76 12.92, 109.93 21.45, 112.61 29.25 C115.29 37.05, 118.22 45.58, 119.93 52.65 C121.63 59.72, 122.85 65.33, 122.85 71.66 C122.85 78, 122.36 86.04, 119.93 90.68 C117.49 95.31, 112.86 97.26, 108.23 99.45 C103.59 101.64, 98.72 102.86, 92.14 103.84 C85.56 104.81, 75.08 105.54, 68.74 105.3 C62.4 105.06, 56.79 106.28, 54.11 102.38 C51.43 98.48, 53.87 87.51, 52.65 81.9 C51.43 76.29, 49.48 74.34, 46.8 68.74 C44.12 63.13, 40.71 56.31, 36.56 48.26 C32.42 40.22, 28.03 28.52, 21.94 20.48 C15.84 12.43, 3.66 3.41, 0 0 M0 0 C3.17 -3.41, 13.16 -15.36, 19.01 -20.48 C24.86 -25.59, 27.79 -28.76, 35.1 -30.71 C42.41 -32.66, 55.09 -32.66, 62.89 -32.18 C70.69 -31.69, 76.54 -30.96, 81.9 -27.79 C87.26 -24.62, 91.41 -18.77, 95.06 -13.16 C98.72 -7.56, 100.91 -1.22, 103.84 5.85 C106.76 12.92, 109.93 21.45, 112.61 29.25 C115.29 37.05, 118.22 45.58, 119.93 52.65 C121.63 59.72, 122.85 65.33, 122.85 71.66 C122.85 78, 122.36 86.04, 119.93 90.68 C117.49 95.31, 112.86 97.26, 108.23 99.45 C103.59 101.64, 98.72 102.86, 92.14 103.84 C85.56 104.81, 75.08 105.54, 68.74 105.3 C62.4 105.06, 56.79 106.28, 54.11 102.38 C51.43 98.48, 53.87 87.51, 52.65 81.9 C51.43 76.29, 49.48 74.34, 46.8 68.74 C44.12 63.13, 40.71 56.31, 36.56 48.26 C32.42 40.22, 28.03 28.52, 21.94 20.48 C15.84 12.43, 3.66 3.41, 0 0" stroke="#000000" stroke-width="2" fill="none"></path></g></g><mask></mask><g stroke-linecap="round"><g transform="translate(1747.6713378956163 607.7667275521926) rotate(0 -59.23184226538365 44.80148356760765)" fill-rule="evenodd"><path d="M-84.89 -16.82 C-84.89 -16.82, -84.89 -16.82, -84.89 -16.82 M-84.89 -16.82 C-84.89 -16.82, -84.89 -16.82, -84.89 -16.82 M-98.54 11.07 C-86.78 -2.46, -75.02 -15.99, -67.05 -25.16 M-98.54 11.07 C-90.69 2.04, -82.84 -6.99, -67.05 -25.16 M-107.59 33.68 C-89.37 12.72, -71.16 -8.23, -55.76 -25.95 M-107.59 33.68 C-88.61 11.84, -69.62 -10, -55.76 -25.95 M-114.02 53.26 C-88.34 23.73, -62.66 -5.81, -43.82 -27.49 M-114.02 53.26 C-98.02 34.86, -82.02 16.46, -43.82 -27.49 M-116.51 68.32 C-94.41 42.91, -72.32 17.49, -34.5 -26.01 M-116.51 68.32 C-93.23 41.55, -69.96 14.78, -34.5 -26.01 M-115.06 78.86 C-88.36 48.14, -61.65 17.42, -26.49 -23.03 M-115.06 78.86 C-97.15 58.25, -79.24 37.65, -26.49 -23.03 M-113.62 89.39 C-85.01 56.48, -56.4 23.57, -19.14 -19.29 M-113.62 89.39 C-94.3 67.17, -74.99 44.95, -19.14 -19.29 M-111.51 99.16 C-88.6 72.8, -65.68 46.44, -12.45 -14.8 M-111.51 99.16 C-81.87 65.06, -52.23 30.96, -12.45 -14.8 M-105.48 104.41 C-68.27 61.61, -31.07 18.82, -7.07 -8.79 M-105.48 104.41 C-84.12 79.85, -62.77 55.28, -7.07 -8.79 M-98.13 108.15 C-70.88 76.81, -43.64 45.47, -1.69 -2.79 M-98.13 108.15 C-74.56 81.04, -50.99 53.93, -1.69 -2.79 M-91.43 112.64 C-65.16 82.42, -38.88 52.19, -15.99 25.85 M-91.43 112.64 C-64.38 81.52, -37.33 50.4, -15.99 25.85 M-83.43 115.63 C-64.36 93.69, -45.29 71.76, -30.29 54.5 M-83.43 115.63 C-69.53 99.64, -55.62 83.64, -30.29 54.5 M-74.11 117.1 C-62.19 103.39, -50.27 89.68, -33.43 70.31 M-74.11 117.1 C-61.3 102.37, -48.5 87.64, -33.43 70.31 M-64.79 118.58 C-58.16 110.95, -51.53 103.32, -37.24 86.88 M-64.79 118.58 C-54.51 106.75, -44.22 94.92, -37.24 86.88 M-55.47 120.05 C-50.46 114.28, -45.44 108.51, -32.51 93.64 M-55.47 120.05 C-48.13 111.61, -40.79 103.16, -32.51 93.64 M-110.71 99.93 C-110.71 99.93, -110.71 99.93, -110.71 99.93 M-110.71 99.93 C-110.71 99.93, -110.71 99.93, -110.71 99.93 M-87.35 109.63 C-97.61 100.72, -107.86 91.81, -116.03 84.7 M-87.35 109.63 C-94.7 103.25, -102.04 96.87, -116.03 84.7 M-74.56 110.16 C-88.32 98.19, -102.09 86.23, -116.82 73.42 M-74.56 110.16 C-89.82 96.89, -105.09 83.62, -116.82 73.42 M-60.25 111.99 C-75.08 99.1, -89.92 86.2, -115.35 64.1 M-60.25 111.99 C-79.78 95.02, -99.3 78.05, -115.35 64.1 M-43.68 115.79 C-69.82 93.08, -95.95 70.36, -113.87 54.78 M-43.68 115.79 C-69.96 92.95, -96.24 70.11, -113.87 54.78 M-38.43 109.76 C-63.04 88.37, -87.64 66.98, -110.89 46.78 M-38.43 109.76 C-59.75 91.22, -81.07 72.69, -110.89 46.78 M-37.71 99.78 C-59.83 80.56, -81.95 61.33, -108.66 38.11 M-37.71 99.78 C-62.95 77.85, -88.18 55.91, -108.66 38.11 M-37.75 89.15 C-56.84 72.56, -75.93 55.96, -105.67 30.11 M-37.75 89.15 C-58.36 71.23, -78.97 53.32, -105.67 30.11 M-36.27 79.84 C-50.03 67.88, -63.79 55.92, -102.69 22.1 M-36.27 79.84 C-50.86 67.15, -65.45 54.47, -102.69 22.1 M-34.04 71.17 C-49.31 57.9, -64.58 44.63, -99.7 14.1 M-34.04 71.17 C-51 56.43, -67.96 41.69, -99.7 14.1 M-32.57 61.86 C-57.82 39.9, -83.07 17.95, -95.97 6.75 M-32.57 61.86 C-50.27 46.46, -67.98 31.07, -95.97 6.75 M-30.34 53.19 C-46.61 39.05, -62.87 24.91, -92.98 -1.26 M-30.34 53.19 C-54.35 32.32, -78.36 11.45, -92.98 -1.26 M-26.6 45.84 C-39.38 34.73, -52.16 23.62, -90 -9.27 M-26.6 45.84 C-48.53 26.78, -70.46 7.72, -90 -9.27 M-23.62 37.84 C-39.37 24.15, -55.12 10.45, -85.5 -15.96 M-23.62 37.84 C-45.38 18.91, -67.15 -0.01, -85.5 -15.96 M-19.88 30.49 C-32.55 19.47, -45.22 8.46, -80.25 -22 M-19.88 30.49 C-33.72 18.45, -47.57 6.41, -80.25 -22 M-16.14 23.14 C-29.84 11.23, -43.54 -0.68, -74.25 -27.38 M-16.14 23.14 C-38.52 3.68, -60.9 -15.77, -74.25 -27.38 M-11.64 16.44 C-32.68 -1.84, -53.72 -20.13, -65.23 -30.14 M-11.64 16.44 C-24.39 5.36, -37.14 -5.72, -65.23 -30.14 M-7.15 9.75 C-18.97 -0.53, -30.79 -10.8, -54.7 -31.58 M-7.15 9.75 C-23.96 -4.86, -40.76 -19.46, -54.7 -31.58 M-1.9 3.71 C-17.73 -10.05, -33.56 -23.81, -41.9 -31.06 M-1.9 3.71 C-13.04 -5.97, -24.17 -15.65, -41.9 -31.06" stroke="#ced4da" stroke-width="1" fill="none"></path><path d="M0 0 C-2.44 -2.68, -9.51 -11.7, -14.63 -16.09 C-19.74 -20.48, -23.4 -24.38, -30.71 -26.33 C-38.03 -28.28, -50.7 -28.28, -58.5 -27.79 C-66.3 -27.3, -72.15 -26.57, -77.51 -23.4 C-82.88 -20.23, -87.02 -14.38, -90.68 -8.78 C-94.33 -3.17, -96.53 3.17, -99.45 10.24 C-102.38 17.31, -105.54 25.84, -108.23 33.64 C-110.91 41.44, -113.83 49.97, -115.54 57.04 C-117.24 64.11, -118.46 69.71, -118.46 76.05 C-118.46 82.39, -117.98 90.43, -115.54 95.06 C-113.1 99.69, -108.23 101.16, -103.84 103.84 C-99.45 106.52, -95.55 109.2, -89.21 111.15 C-82.88 113.1, -73.86 114.81, -65.81 115.54 C-57.77 116.27, -45.58 119.93, -40.95 115.54 C-36.32 111.15, -39 95.79, -38.03 89.21 C-37.05 82.63, -36.32 81.9, -35.1 76.05 C-33.88 70.2, -33.64 62.64, -30.71 54.11 C-27.79 45.58, -22.67 33.88, -17.55 24.86 C-12.43 15.84, -2.93 4.14, 0 0 M0 0 C-2.44 -2.68, -9.51 -11.7, -14.63 -16.09 C-19.74 -20.48, -23.4 -24.38, -30.71 -26.33 C-38.03 -28.28, -50.7 -28.28, -58.5 -27.79 C-66.3 -27.3, -72.15 -26.57, -77.51 -23.4 C-82.88 -20.23, -87.02 -14.38, -90.68 -8.78 C-94.33 -3.17, -96.53 3.17, -99.45 10.24 C-102.38 17.31, -105.54 25.84, -108.23 33.64 C-110.91 41.44, -113.83 49.97, -115.54 57.04 C-117.24 64.11, -118.46 69.71, -118.46 76.05 C-118.46 82.39, -117.98 90.43, -115.54 95.06 C-113.1 99.69, -108.23 101.16, -103.84 103.84 C-99.45 106.52, -95.55 109.2, -89.21 111.15 C-82.88 113.1, -73.86 114.81, -65.81 115.54 C-57.77 116.27, -45.58 119.93, -40.95 115.54 C-36.32 111.15, -39 95.79, -38.03 89.21 C-37.05 82.63, -36.32 81.9, -35.1 76.05 C-33.88 70.2, -33.64 62.64, -30.71 54.11 C-27.79 45.58, -22.67 33.88, -17.55 24.86 C-12.43 15.84, -2.93 4.14, 0 0" stroke="#000000" stroke-width="2" fill="none"></path></g></g><mask></mask><g transform="translate(953.5107047646027 325.3534479744121) rotate(0 136.9260559082031 51.63365100986084)"><text x="0" y="0" font-family="Virgil, Segoe UI Emoji" font-size="82.61384161577708px" fill="#000000" text-anchor="start" style="white-space: pre;" direction="ltr" dominant-baseline="text-before-edge">LoDAO</text></g><g stroke-linecap="round"><g transform="translate(941.997554504402 285.48018294854046) rotate(0 106.65300396727747 -90.0313226149483)" fill-rule="evenodd"><path d="M37.81 -142.03 C37.81 -142.03, 37.81 -142.03, 37.81 -142.03 M37.81 -142.03 C37.81 -142.03, 37.81 -142.03, 37.81 -142.03 M17.61 -106.59 C32.14 -123.31, 46.66 -140.02, 70.09 -166.97 M17.61 -106.59 C34.65 -126.2, 51.7 -145.81, 70.09 -166.97 M13.81 -90.02 C42.78 -123.35, 71.74 -156.68, 89.91 -177.57 M13.81 -90.02 C29.65 -108.25, 45.48 -126.47, 89.91 -177.57 M11.31 -74.97 C44.19 -112.78, 77.07 -150.6, 101.19 -178.36 M11.31 -74.97 C39.37 -107.24, 67.42 -139.51, 101.19 -178.36 M8.82 -59.91 C42.48 -98.62, 76.13 -137.33, 111.17 -177.64 M8.82 -59.91 C33.19 -87.94, 57.57 -115.98, 111.17 -177.64 M12.24 -51.64 C35.66 -78.58, 59.08 -105.53, 120.49 -176.17 M12.24 -51.64 C40.16 -83.76, 68.08 -115.88, 120.49 -176.17 M10.4 -37.33 C52.83 -86.14, 95.26 -134.96, 128.49 -173.18 M10.4 -37.33 C37.5 -68.51, 64.6 -99.68, 128.49 -173.18 M8.57 -23.03 C47.66 -68, 86.76 -112.97, 135.84 -169.44 M8.57 -23.03 C35.57 -54.09, 62.57 -85.15, 135.84 -169.44 M7.39 -9.48 C56.37 -65.83, 105.36 -122.18, 142.54 -164.95 M7.39 -9.48 C59.13 -69, 110.87 -128.52, 142.54 -164.95 M5.55 4.83 C36.33 -30.57, 67.1 -65.98, 148.57 -159.7 M5.55 4.83 C41.48 -36.51, 77.41 -77.84, 148.57 -159.7 M16.18 4.79 C54.53 -39.32, 92.88 -83.43, 154.61 -154.45 M16.18 4.79 C68.17 -55.01, 120.15 -114.81, 154.61 -154.45 M26.81 4.76 C69.09 -43.87, 111.36 -92.5, 160.65 -149.2 M26.81 4.76 C77.43 -53.47, 128.05 -111.7, 160.65 -149.2 M36.79 5.48 C87.21 -52.53, 137.63 -110.53, 166.03 -143.2 M36.79 5.48 C70.57 -33.38, 104.35 -72.25, 166.03 -143.2 M47.42 5.44 C82.34 -34.73, 117.26 -74.91, 170.76 -136.44 M47.42 5.44 C74.89 -26.15, 102.35 -57.75, 170.76 -136.44 M58.05 5.41 C86.09 -26.85, 114.13 -59.11, 176.14 -130.44 M58.05 5.41 C101.83 -44.96, 145.62 -95.33, 176.14 -130.44 M68.68 5.37 C112.1 -44.58, 155.53 -94.53, 180.21 -122.93 M68.68 5.37 C106.7 -38.36, 144.72 -82.1, 180.21 -122.93 M78.65 6.1 C110.86 -30.96, 143.07 -68.01, 184.93 -116.17 M78.65 6.1 C101.04 -19.66, 123.43 -45.42, 184.93 -116.17 M89.28 6.06 C109.75 -17.49, 130.22 -41.03, 189 -108.66 M89.28 6.06 C120.75 -30.14, 152.22 -66.34, 189 -108.66 M103.85 1.5 C132.35 -31.29, 160.84 -64.07, 193.07 -101.14 M103.85 1.5 C136.38 -35.92, 168.91 -73.35, 193.07 -101.14 M114.48 1.46 C139.28 -27.07, 164.09 -55.61, 197.14 -93.63 M114.48 1.46 C135.64 -22.88, 156.79 -47.22, 197.14 -93.63 M125.76 0.67 C153.24 -30.94, 180.73 -62.55, 200.55 -85.36 M125.76 0.67 C155.13 -33.11, 184.49 -66.88, 200.55 -85.36 M135.74 1.39 C159.26 -25.67, 182.78 -52.73, 204.62 -77.85 M135.74 1.39 C156.26 -22.22, 176.79 -45.83, 204.62 -77.85 M147.02 0.61 C169.75 -25.54, 192.48 -51.68, 207.38 -68.83 M147.02 0.61 C167.03 -22.4, 187.03 -45.41, 207.38 -68.83 M158.31 -0.18 C178.81 -23.77, 199.31 -47.35, 210.14 -59.81 M158.31 -0.18 C174.07 -18.31, 189.82 -36.43, 210.14 -59.81 M167.63 1.29 C177.79 -10.4, 187.95 -22.09, 212.9 -50.78 M167.63 1.29 C185.47 -19.23, 203.31 -39.76, 212.9 -50.78 M180.23 -1.01 C187.96 -9.91, 195.7 -18.8, 214.34 -40.25 M180.23 -1.01 C192.61 -15.26, 205 -29.5, 214.34 -40.25 M197.42 -8.59 C202.4 -14.33, 207.39 -20.06, 218.41 -32.74 M197.42 -8.59 C203.1 -15.12, 208.78 -21.66, 218.41 -32.74 M0 0 C0 0, 0 0, 0 0 M0 0 C0 0, 0 0, 0 0 M12.04 -0.13 C8.97 -2.8, 5.9 -5.47, 1.47 -9.32 M12.04 -0.13 C9.64 -2.22, 7.24 -4.31, 1.47 -9.32 M24.84 0.39 C16.44 -6.91, 8.04 -14.22, 2.2 -19.29 M24.84 0.39 C17.39 -6.09, 9.94 -12.56, 2.2 -19.29 M36.88 0.26 C26.71 -8.58, 16.55 -17.42, 3.67 -28.61 M36.88 0.26 C30.02 -5.71, 23.16 -11.67, 3.67 -28.61 M49.67 0.78 C40.37 -7.3, 31.08 -15.39, 4.39 -38.58 M49.67 0.78 C38.5 -8.93, 27.33 -18.64, 4.39 -38.58 M61.71 0.65 C41.81 -16.65, 21.91 -33.95, 5.87 -47.9 M61.71 0.65 C43.37 -15.3, 25.02 -31.25, 5.87 -47.9 M74.51 1.17 C57.09 -13.97, 39.68 -29.11, 7.34 -57.22 M74.51 1.17 C58.45 -12.79, 42.4 -26.74, 7.34 -57.22 M86.55 1.04 C58.48 -23.36, 30.42 -47.76, 8.82 -66.54 M86.55 1.04 C56.32 -25.24, 26.1 -51.52, 8.82 -66.54 M99.35 1.56 C73.77 -20.67, 48.19 -42.91, 11.04 -75.2 M99.35 1.56 C79.24 -15.92, 59.13 -33.4, 11.04 -75.2 M106.86 -2.51 C70.19 -34.38, 33.53 -66.25, 12.52 -84.52 M106.86 -2.51 C72.88 -32.05, 38.89 -61.59, 12.52 -84.52 M118.9 -2.64 C82.29 -34.47, 45.68 -66.29, 14.75 -93.18 M118.9 -2.64 C81.28 -35.35, 43.66 -68.05, 14.75 -93.18 M130.94 -2.78 C90.37 -38.04, 49.8 -73.31, 16.98 -101.84 M130.94 -2.78 C97.69 -31.68, 64.45 -60.58, 16.98 -101.84 M140.72 -4.88 C104.67 -36.21, 68.63 -67.54, 19.96 -109.85 M140.72 -4.88 C102.75 -37.88, 64.79 -70.88, 19.96 -109.85 M152 -5.67 C109.62 -42.51, 67.23 -79.36, 22.95 -117.85 M152 -5.67 C125.01 -29.13, 98.02 -52.59, 22.95 -117.85 M166.31 -3.83 C126.85 -38.13, 87.39 -72.44, 26.69 -125.2 M166.31 -3.83 C112.03 -51.02, 57.74 -98.2, 26.69 -125.2 M177.59 -4.62 C145.43 -32.58, 113.26 -60.54, 31.18 -131.9 M177.59 -4.62 C146.16 -31.95, 114.73 -59.27, 31.18 -131.9 M188.13 -6.07 C149.54 -39.61, 110.95 -73.15, 36.43 -137.93 M188.13 -6.07 C155.91 -34.07, 123.69 -62.08, 36.43 -137.93 M197.15 -8.82 C151.32 -48.66, 105.49 -88.5, 40.17 -145.28 M197.15 -8.82 C136.36 -61.66, 75.58 -114.5, 40.17 -145.28 M203.91 -13.55 C162.48 -49.56, 121.06 -85.56, 46.17 -150.67 M203.91 -13.55 C166.07 -46.44, 128.24 -79.33, 46.17 -150.67 M209.91 -18.93 C169.36 -54.18, 128.82 -89.42, 51.42 -156.7 M209.91 -18.93 C165.2 -57.8, 120.49 -96.66, 51.42 -156.7 M213.65 -26.28 C158.24 -74.45, 102.82 -122.62, 57.42 -162.09 M213.65 -26.28 C174.22 -60.55, 134.8 -94.82, 57.42 -162.09 M213.61 -36.91 C158.27 -85.02, 102.92 -133.13, 64.18 -166.81 M213.61 -36.91 C179.05 -66.96, 144.48 -97.01, 64.18 -166.81 M212.07 -48.85 C172.85 -82.94, 133.63 -117.04, 70.18 -172.19 M212.07 -48.85 C175.52 -80.63, 138.96 -112.4, 70.18 -172.19 M214.3 -57.52 C167.69 -98.03, 121.08 -138.55, 78.45 -175.61 M214.3 -57.52 C181.23 -86.26, 148.17 -115, 78.45 -175.61 M208.23 -73.39 C163.03 -112.68, 117.84 -151.97, 86.72 -179.02 M208.23 -73.39 C160.84 -114.58, 113.46 -155.78, 86.72 -179.02 M199.89 -91.24 C175.25 -112.66, 150.6 -134.08, 92.72 -184.4 M199.89 -91.24 C167.37 -119.51, 134.86 -147.77, 92.72 -184.4 M189.29 -111.06 C166.14 -131.18, 142.99 -151.3, 107.78 -181.91 M189.29 -111.06 C172.15 -125.95, 155.02 -140.85, 107.78 -181.91 M174.16 -134.81 C158.73 -148.22, 143.29 -161.64, 128.12 -174.83 M174.16 -134.81 C161.59 -145.73, 149.02 -156.66, 128.12 -174.83" stroke="#ced4da" stroke-width="1" fill="none"></path><path d="M0 0 C3.8 -20.01, 6.51 -89.89, 22.79 -120.09 C39.08 -150.29, 72.72 -179.04, 97.69 -181.23 C122.65 -183.41, 154.94 -161.32, 172.58 -133.19 C190.22 -105.06, 232.28 -34.67, 203.52 -12.47 C174.75 9.73, 33.92 -2.08, 0 0 M0 0 C3.8 -20.01, 6.51 -89.89, 22.79 -120.09 C39.08 -150.29, 72.72 -179.04, 97.69 -181.23 C122.65 -183.41, 154.94 -161.32, 172.58 -133.19 C190.22 -105.06, 232.28 -34.67, 203.52 -12.47 C174.75 9.73, 33.92 -2.08, 0 0" stroke="#000000" stroke-width="2" fill="none"></path></g></g><mask></mask><g stroke-linecap="round" transform="translate(993.4406601431385 10) rotate(0 52.10030233227903 45.58776454074359)"><path d="M11.03 17.54 C11.03 17.54, 11.03 17.54, 11.03 17.54 M11.03 17.54 C11.03 17.54, 11.03 17.54, 11.03 17.54 M1.32 40.9 C9.49 31.5, 17.65 22.11, 32.81 4.67 M1.32 40.9 C9.55 31.42, 17.79 21.95, 32.81 4.67 M1.45 52.94 C11.53 41.34, 21.61 29.75, 46.06 1.62 M1.45 52.94 C14.7 37.7, 27.95 22.46, 46.06 1.62 M5.52 60.45 C19.65 44.2, 33.78 27.95, 55.38 3.09 M5.52 60.45 C21.5 42.07, 37.47 23.7, 55.38 3.09 M8.28 69.47 C20.41 55.52, 32.54 41.56, 66.67 2.3 M8.28 69.47 C31.58 42.67, 54.88 15.86, 66.67 2.3 M13.66 75.48 C32.56 53.73, 51.47 31.99, 74.67 5.29 M13.66 75.48 C28.07 58.9, 42.47 42.33, 74.67 5.29 M19.04 81.48 C35.96 62.01, 52.88 42.55, 82.02 9.03 M19.04 81.48 C43.38 53.49, 67.71 25.5, 82.02 9.03 M26.39 85.22 C43.01 66.11, 59.62 47, 88.72 13.52 M26.39 85.22 C49.57 58.56, 72.75 31.89, 88.72 13.52 M33.74 88.96 C47.36 73.3, 60.97 57.63, 94.76 18.77 M33.74 88.96 C51.91 68.06, 70.07 47.16, 94.76 18.77 M41.75 91.94 C61.01 69.79, 80.26 47.63, 100.14 24.77 M41.75 91.94 C63.2 67.26, 84.66 42.58, 100.14 24.77 M52.38 91.91 C66.73 75.39, 81.09 58.88, 102.89 33.79 M52.38 91.91 C67.47 74.54, 82.57 57.18, 102.89 33.79 M61.7 93.38 C71.7 81.87, 81.71 70.36, 106.31 42.06 M61.7 93.38 C72.37 81.1, 83.04 68.83, 106.31 42.06 M78.89 85.8 C87.7 75.66, 96.52 65.52, 103.16 57.88 M78.89 85.8 C88.15 75.14, 97.42 64.49, 103.16 57.88 M15.58 78.1 C15.58 78.1, 15.58 78.1, 15.58 78.1 M15.58 78.1 C15.58 78.1, 15.58 78.1, 15.58 78.1 M39.7 88.47 C26.02 76.57, 12.34 64.68, 2.72 56.32 M39.7 88.47 C29.9 79.95, 20.1 71.43, 2.72 56.32 M53.25 89.65 C35.14 73.91, 17.03 58.17, 1.17 44.38 M53.25 89.65 C34.54 73.38, 15.82 57.11, 1.17 44.38 M62.27 86.89 C43.86 70.88, 25.45 54.88, 3.4 35.72 M62.27 86.89 C44.97 71.85, 27.66 56.8, 3.4 35.72 M73.56 86.1 C55.13 70.08, 36.71 54.07, 4.88 26.4 M73.56 86.1 C58.23 72.77, 42.9 59.45, 4.88 26.4 M81.07 82.03 C52.5 57.2, 23.94 32.37, 9.37 19.7 M81.07 82.03 C56.66 60.81, 32.25 39.59, 9.37 19.7 M87.83 77.3 C72.96 64.38, 58.09 51.46, 14.62 13.67 M87.83 77.3 C58.97 52.22, 30.12 27.14, 14.62 13.67 M94.58 72.58 C70.28 51.45, 45.98 30.33, 21.38 8.94 M94.58 72.58 C72.41 53.31, 50.24 34.03, 21.38 8.94 M99.08 65.88 C76.44 46.21, 53.81 26.53, 28.14 4.22 M99.08 65.88 C79.83 49.15, 60.58 32.42, 28.14 4.22 M103.57 59.19 C88.83 46.38, 74.09 33.56, 35.65 0.15 M103.57 59.19 C89.58 47.03, 75.58 34.86, 35.65 0.15 M105.05 49.87 C85.53 32.91, 66.01 15.94, 46.18 -1.3 M105.05 49.87 C91.48 38.08, 77.9 26.28, 46.18 -1.3 M104.26 38.59 C92.87 28.69, 81.49 18.79, 59.73 -0.12 M104.26 38.59 C90.83 26.92, 77.41 15.25, 59.73 -0.12 M97.43 22.05 C93.58 18.7, 89.72 15.35, 78.56 5.65 M97.43 22.05 C91.32 16.74, 85.21 11.43, 78.56 5.65" stroke="#ced4da" stroke-width="1" fill="none"></path><path d="M104.2 45.59 C104.2 47.57, 104.05 49.57, 103.75 51.54 C103.46 53.5, 103.01 55.47, 102.43 57.39 C101.84 59.3, 101.1 61.2, 100.23 63.03 C99.37 64.87, 98.35 66.66, 97.22 68.38 C96.09 70.1, 94.81 71.77, 93.43 73.34 C92.05 74.91, 90.54 76.42, 88.94 77.82 C87.34 79.23, 85.62 80.55, 83.82 81.75 C82.02 82.96, 80.11 84.08, 78.15 85.07 C76.19 86.06, 74.13 86.95, 72.04 87.71 C69.94 88.46, 67.77 89.11, 65.58 89.62 C63.4 90.14, 61.15 90.53, 58.9 90.79 C56.65 91.04, 54.37 91.18, 52.1 91.18 C49.83 91.18, 47.55 91.04, 45.3 90.79 C43.05 90.53, 40.81 90.14, 38.62 89.62 C36.43 89.11, 34.26 88.46, 32.16 87.71 C30.07 86.95, 28.01 86.06, 26.05 85.07 C24.09 84.08, 22.18 82.96, 20.38 81.75 C18.59 80.55, 16.86 79.23, 15.26 77.82 C13.66 76.42, 12.15 74.91, 10.77 73.34 C9.39 71.77, 8.11 70.1, 6.98 68.38 C5.85 66.66, 4.83 64.87, 3.97 63.03 C3.1 61.2, 2.36 59.3, 1.78 57.39 C1.19 55.47, 0.74 53.5, 0.45 51.54 C0.15 49.57, 0 47.57, 0 45.59 C0 43.6, 0.15 41.6, 0.45 39.64 C0.74 37.67, 1.19 35.7, 1.78 33.79 C2.36 31.87, 3.1 29.97, 3.97 28.14 C4.83 26.31, 5.85 24.51, 6.98 22.79 C8.11 21.08, 9.39 19.41, 10.77 17.84 C12.15 16.26, 13.66 14.75, 15.26 13.35 C16.86 11.95, 18.59 10.63, 20.38 9.42 C22.18 8.21, 24.09 7.1, 26.05 6.11 C28.01 5.12, 30.07 4.23, 32.16 3.47 C34.26 2.71, 36.43 2.07, 38.62 1.55 C40.81 1.04, 43.05 0.65, 45.3 0.39 C47.55 0.13, 49.83 0, 52.1 0 C54.37 0, 56.65 0.13, 58.9 0.39 C61.15 0.65, 63.4 1.04, 65.58 1.55 C67.77 2.07, 69.94 2.71, 72.04 3.47 C74.13 4.23, 76.19 5.12, 78.15 6.11 C80.11 7.1, 82.02 8.21, 83.82 9.42 C85.62 10.63, 87.34 11.95, 88.94 13.35 C90.54 14.75, 92.05 16.26, 93.43 17.84 C94.81 19.41, 96.09 21.08, 97.22 22.79 C98.35 24.51, 99.37 26.31, 100.23 28.14 C101.1 29.97, 101.84 31.87, 102.43 33.79 C103.01 35.7, 103.46 37.67, 103.75 39.64 C104.05 41.6, 104.13 44.6, 104.2 45.59 C104.27 46.58, 104.27 44.6, 104.2 45.59" stroke="#000000" stroke-width="2" fill="none"></path></g><g stroke-linecap="round"><g transform="translate(1007.8171997070308 379.8387044272131) rotate(0 0 0)"><path d="M0 0 C0 0, 0 0, 0 0 M0 0 C0 0, 0 0, 0 0" stroke="#343a40" stroke-width="4" fill="none"></path></g></g><mask></mask><g stroke-linecap="round"><g transform="translate(882.8173522949216 154.8387044272131) rotate(0 -284.16671752929676 152.49996185302734)"><path d="M0 0 C-63.33 16.94, -285.28 50.83, -380 101.67 C-474.72 152.5, -536.94 271.11, -568.33 305 M0 0 C-63.33 16.94, -285.28 50.83, -380 101.67 C-474.72 152.5, -536.94 271.11, -568.33 305" stroke="#343a40" stroke-width="4" fill="none"></path></g><g transform="translate(882.8173522949216 154.8387044272131) rotate(0 -284.16671752929676 152.49996185302734)"><path d="M-559.75 276.25 C-562.55 285.65, -565.36 295.04, -568.33 305 M-559.75 276.25 C-562.09 284.1, -564.44 291.95, -568.33 305" stroke="#343a40" stroke-width="4" fill="none"></path></g><g transform="translate(882.8173522949216 154.8387044272131) rotate(0 -284.16671752929676 152.49996185302734)"><path d="M-543.28 288.5 C-551.47 293.89, -559.65 299.28, -568.33 305 M-543.28 288.5 C-550.12 293, -556.96 297.51, -568.33 305" stroke="#343a40" stroke-width="4" fill="none"></path></g></g><mask></mask><g stroke-linecap="round"><g transform="translate(1227.8171997070308 141.50534566256465) rotate(0 235 155)"><path d="M0 0 C49.17 20, 216.67 68.33, 295 120 C373.33 171.67, 440.83 278.33, 470 310 M0 0 C49.17 20, 216.67 68.33, 295 120 C373.33 171.67, 440.83 278.33, 470 310" stroke="#343a40" stroke-width="4" fill="none"></path></g><g transform="translate(1227.8171997070308 141.50534566256465) rotate(0 235 155)"><path d="M444.45 294.28 C451.67 298.73, 458.9 303.17, 470 310 M444.45 294.28 C452.7 299.36, 460.96 304.44, 470 310" stroke="#343a40" stroke-width="4" fill="none"></path></g><g transform="translate(1227.8171997070308 141.50534566256465) rotate(0 235 155)"><path d="M460.53 281.53 C463.21 289.58, 465.89 297.63, 470 310 M460.53 281.53 C463.59 290.73, 466.65 299.93, 470 310" stroke="#343a40" stroke-width="4" fill="none"></path></g></g><mask></mask><g stroke-linecap="round"><g transform="translate(599.4839172363281 731.50542195651) rotate(0 450.8333587646482 -31.733069568974315)"><path d="M0 0 C73.33 -10.56, 289.72 -60.56, 440 -63.33 C590.28 -66.11, 824.72 -24.44, 901.67 -16.67 M0 0 C73.33 -10.56, 289.72 -60.56, 440 -63.33 C590.28 -66.11, 824.72 -24.44, 901.67 -16.67" stroke="#343a40" stroke-width="4" fill="none"></path></g><g transform="translate(599.4839172363281 731.50542195651) rotate(0 450.8333587646482 -31.733069568974315)"><path d="M872.37 -10.22 C884.01 -12.78, 895.66 -15.34, 901.67 -16.67 M872.37 -10.22 C881.35 -12.2, 890.34 -14.17, 901.67 -16.67" stroke="#343a40" stroke-width="4" fill="none"></path></g><g transform="translate(599.4839172363281 731.50542195651) rotate(0 450.8333587646482 -31.733069568974315)"><path d="M875.08 -30.56 C885.65 -25.04, 896.21 -19.52, 901.67 -16.67 M875.08 -30.56 C883.23 -26.3, 891.39 -22.04, 901.67 -16.67" stroke="#343a40" stroke-width="4" fill="none"></path></g></g><mask></mask><g stroke-linecap="round"><g transform="translate(611.150634765625 814.8387044272131) rotate(0 439.16671752929665 -2.9977172779199464)"><path d="M0 0 C72.22 3.89, 286.94 28.33, 433.33 23.33 C579.72 18.33, 804.17 -21.11, 878.33 -30 M0 0 C72.22 3.89, 286.94 28.33, 433.33 23.33 C579.72 18.33, 804.17 -21.11, 878.33 -30" stroke="#343a40" stroke-width="4" fill="none"></path></g><g transform="translate(611.150634765625 814.8387044272131) rotate(0 439.16671752929665 -2.9977172779199464)"><path d="M851.88 -15.84 C861.1 -20.78, 870.32 -25.71, 878.33 -30 M851.88 -15.84 C858.97 -19.64, 866.06 -23.43, 878.33 -30" stroke="#343a40" stroke-width="4" fill="none"></path></g><g transform="translate(611.150634765625 814.8387044272131) rotate(0 439.16671752929665 -2.9977172779199464)"><path d="M848.97 -36.16 C859.2 -34.01, 869.43 -31.87, 878.33 -30 M848.97 -36.16 C856.84 -34.51, 864.7 -32.86, 878.33 -30" stroke="#343a40" stroke-width="4" fill="none"></path></g></g><mask></mask><g transform="translate(1412.7335510253902 143.1719868979162) rotate(0 150.08395385742188 22.5)"><text x="150.08395385742188" y="0" font-family="Virgil, Segoe UI Emoji" font-size="36px" fill="#343a40" text-anchor="middle" style="white-space: pre;" direction="ltr" dominant-baseline="text-before-edge">1. Create lottery</text></g><g transform="translate(10 223.1719868979162) rotate(0 209.48391723632812 22.5)"><text x="209.48391723632812" y="0" font-family="Virgil, Segoe UI Emoji" font-size="36px" fill="#343a40" text-anchor="middle" style="white-space: pre;" direction="ltr" dominant-baseline="text-before-edge">2. Create smart wallet</text></g><g transform="translate(871.4679565429683 573.1719868979162) rotate(0 128.01596069335938 22.5)"><text x="128.01596069335938" y="0" font-family="Virgil, Segoe UI Emoji" font-size="36px" fill="#343a40" text-anchor="middle" style="white-space: pre;" direction="ltr" dominant-baseline="text-before-edge">3. Buy lottery</text></g><g stroke-linecap="round"><g transform="translate(1251.1506347656245 304.8387044272131) rotate(0 190.83328247070312 121.66664123535156)"><path d="M0 0 C25 26.39, 86.39 117.78, 150 158.33 C213.61 198.89, 343.06 229.17, 381.67 243.33 M0 0 C25 26.39, 86.39 117.78, 150 158.33 C213.61 198.89, 343.06 229.17, 381.67 243.33" stroke="#343a40" stroke-width="4" fill="none"></path></g><g transform="translate(1251.1506347656245 304.8387044272131) rotate(0 190.83328247070312 121.66664123535156)"><path d="M351.7 244.85 C362.03 244.33, 372.35 243.8, 381.67 243.33 M351.7 244.85 C358.26 244.52, 364.82 244.18, 381.67 243.33" stroke="#343a40" stroke-width="4" fill="none"></path></g><g transform="translate(1251.1506347656245 304.8387044272131) rotate(0 190.83328247070312 121.66664123535156)"><path d="M357.74 225.23 C365.98 231.47, 374.23 237.7, 381.67 243.33 M357.74 225.23 C362.98 229.2, 368.21 233.16, 381.67 243.33" stroke="#343a40" stroke-width="4" fill="none"></path></g></g><mask></mask><g transform="translate(1139.209808349609 473.1719868979162) rotate(0 140.27395629882812 22.5)"><text x="140.27395629882812" y="0" font-family="Virgil, Segoe UI Emoji" font-size="36px" fill="#343a40" text-anchor="middle" style="white-space: pre;" direction="ltr" dominant-baseline="text-before-edge">4. Draw lottery</text></g><g transform="translate(930.3637924194331 878.1719868979162) rotate(0 69.1199722290039 22.5)"><text x="69.1199722290039" y="0" font-family="Virgil, Segoe UI Emoji" font-size="36px" fill="#343a40" text-anchor="middle" style="white-space: pre;" direction="ltr" dominant-baseline="text-before-edge">4. Claim</text></g></svg>